/* XPM */
static char * minimizeA_xpm[] = {
"23 52 481 2",
"  	c None",
". 	c #0365F1",
"+ 	c #005CE9",
"@ 	c #0058E6",
"# 	c #055AE5",
"$ 	c #6696EB",
"% 	c #E5EDFB",
"& 	c #FFFFFF",
"* 	c #0053E1",
"= 	c #6693E9",
"- 	c #DCE5FD",
"; 	c #739AF8",
"> 	c #608CF7",
", 	c #5584F6",
"' 	c #4D7EF6",
") 	c #487AF5",
"! 	c #4276F5",
"~ 	c #4478F5",
"{ 	c #3E73F5",
"] 	c #3B71F5",
"^ 	c #336CF4",
"/ 	c #306AF4",
"( 	c #2864F4",
"_ 	c #1F5DEF",
": 	c #3467E0",
"< 	c #D2DBF2",
"[ 	c #769CF8",
"} 	c #90AFF9",
"| 	c #94B2F9",
"1 	c #85A7F8",
"2 	c #759CF8",
"3 	c #6E97F8",
"4 	c #6892F7",
"5 	c #6690F7",
"6 	c #628EF7",
"7 	c #5F8CF7",
"8 	c #5E8BF7",
"9 	c #5988F6",
"0 	c #5685F6",
"a 	c #5082F6",
"b 	c #497CF5",
"c 	c #3F75F5",
"d 	c #326BF2",
"e 	c #235CE3",
"f 	c #305CC5",
"g 	c #E5ECFB",
"h 	c #6590F7",
"i 	c #97B4F9",
"j 	c #9AB7FA",
"k 	c #89AAF9",
"l 	c #7AA0F8",
"m 	c #729AF8",
"n 	c #6D95F8",
"o 	c #6892F8",
"p 	c #658FF7",
"q 	c #618DF7",
"r 	c #5D8AF7",
"s 	c #5987F6",
"t 	c #5283F6",
"u 	c #4C7EF6",
"v 	c #4377F5",
"w 	c #376EF2",
"x 	c #285FE3",
"y 	c #1546B9",
"z 	c #0055E5",
"A 	c #5886F6",
"B 	c #8DADF9",
"C 	c #7FA3F8",
"D 	c #7199F8",
"E 	c #6A93F8",
"F 	c #648EF7",
"G 	c #5E8AF7",
"H 	c #5986F7",
"I 	c #5482F6",
"J 	c #5180F6",
"K 	c #4B7CF5",
"L 	c #4A7CF5",
"M 	c #3A72F4",
"N 	c #346CF2",
"O 	c #2A61E3",
"P 	c #1848BB",
"Q 	c #5282F6",
"R 	c #799FF8",
"S 	c #7CA1F8",
"T 	c #6791F8",
"U 	c #608BF7",
"V 	c #5985F7",
"W 	c #5381F6",
"X 	c #4D7BF6",
"Y 	c #4677F5",
"Z 	c #4173F5",
"` 	c #3A6FF4",
" .	c #386EF4",
"..	c #346CF4",
"+.	c #326CF4",
"@.	c #316BF4",
"#.	c #3069F1",
"$.	c #2C62E4",
"%.	c #1D4CBC",
"&.	c #0051E5",
"*.	c #7099F8",
"=.	c #628CF8",
"-.	c #5B86F7",
";.	c #5480F7",
">.	c #4777F6",
",.	c #4072F5",
"'.	c #3A6FF5",
").	c #346DF4",
"!.	c #306BF4",
"~.	c #2D69F4",
"{.	c #2C69F5",
"].	c #2D69F5",
"^.	c #2E69F2",
"/.	c #2C63E5",
"(.	c #4679F5",
"_.	c #658FF8",
":.	c #5E89F7",
"<.	c #5783F7",
"[.	c #507EF6",
"}.	c #4A79F6",
"|.	c #4375F5",
"1.	c #3D71F5",
"2.	c #366EF4",
"3.	c #2F6BF5",
"4.	c #2B69F5",
"5.	c #2867F5",
"6.	c #2766F5",
"7.	c #2A68F5",
"8.	c #2C69F2",
"9.	c #2A62E4",
"0.	c #1C4CBD",
"a.	c #628DF8",
"b.	c #5B87F7",
"c.	c #5482F7",
"d.	c #4E7CF6",
"e.	c #4778F6",
"f.	c #4174F5",
"g.	c #3A71F5",
"h.	c #346EF4",
"i.	c #2D6BF5",
"j.	c #2869F5",
"k.	c #2467F5",
"l.	c #2266F5",
"m.	c #2567F5",
"n.	c #2968F2",
"o.	c #2963E4",
"p.	c #1B4BBD",
"q.	c #0055EA",
"r.	c #3C72F4",
"s.	c #5D89F7",
"t.	c #4E7EF6",
"u.	c #477AF5",
"v.	c #4178F5",
"w.	c #3A74F5",
"x.	c #3472F5",
"y.	c #2C6FF5",
"z.	c #276CF5",
"A.	c #236AF6",
"B.	c #2069F6",
"C.	c #2268F5",
"D.	c #2569F2",
"E.	c #2562E6",
"F.	c #194BBE",
"G.	c #376EF4",
"H.	c #5181F6",
"I.	c #5785F7",
"J.	c #5281F6",
"K.	c #477BF6",
"L.	c #4179F6",
"M.	c #3B77F5",
"N.	c #3474F5",
"O.	c #2C72F6",
"P.	c #266FF6",
"Q.	c #226DF6",
"R.	c #1E6BF6",
"S.	c #1F6AF6",
"T.	c #216AF3",
"U.	c #2162E6",
"V.	c #1649BE",
"W.	c #0058EE",
"X.	c #326BF4",
"Y.	c #4B7DF5",
"Z.	c #5483F6",
"`.	c #5684F7",
" +	c #5583F7",
".+	c #4D80F6",
"++	c #487DF6",
"@+	c #427CF6",
"#+	c #3C7AF6",
"$+	c #3478F6",
"%+	c #2D76F6",
"&+	c #2673F7",
"*+	c #2171F7",
"=+	c #1C6FF6",
"-+	c #1C6DF6",
";+	c #1C6AF4",
">+	c #1C61E6",
",+	c #1248BF",
"'+	c #0058F3",
")+	c #2B66F4",
"!+	c #4E7FF6",
"~+	c #5383F6",
"{+	c #5182F6",
"]+	c #4D81F7",
"^+	c #487FF6",
"/+	c #437FF6",
"(+	c #3D7EF6",
"_+	c #357CF6",
":+	c #2D7AF7",
"<+	c #2677F7",
"[+	c #2174F7",
"}+	c #1B71F7",
"|+	c #186EF7",
"1+	c #186AF4",
"2+	c #165FE7",
"3+	c #0F47C0",
"4+	c #005AF5",
"5+	c #2562F3",
"6+	c #3D73F4",
"7+	c #487BF5",
"8+	c #4E80F6",
"9+	c #2D7CF7",
"0+	c #2679F8",
"a+	c #2077F7",
"b+	c #1973F7",
"c+	c #166FF7",
"d+	c #1369F4",
"e+	c #105DE8",
"f+	c #0A44BF",
"g+	c #0060F9",
"h+	c #1E5DF3",
"i+	c #497BF5",
"j+	c #2D7DF7",
"k+	c #257AF8",
"l+	c #1E77F8",
"m+	c #1773F8",
"n+	c #116DF7",
"o+	c #0D66F4",
"p+	c #0B59E7",
"q+	c #0641C0",
"r+	c #0060FC",
"s+	c #1859F3",
"t+	c #2E68F4",
"u+	c #3A71F4",
"v+	c #4277F5",
"w+	c #2A7CF8",
"x+	c #247AF8",
"y+	c #1D77F8",
"z+	c #1573F8",
"A+	c #0E6CF8",
"B+	c #0963F4",
"C+	c #0556E7",
"D+	c #023FBF",
"E+	c #0065FD",
"F+	c #1456F3",
"G+	c #2562F4",
"H+	c #3971F4",
"I+	c #3D74F5",
"J+	c #3D74F6",
"K+	c #3B75F5",
"L+	c #3976F5",
"M+	c #3777F5",
"N+	c #3278F6",
"O+	c #2C78F7",
"P+	c #2577F7",
"Q+	c #1F76F7",
"R+	c #1972F7",
"S+	c #116EF8",
"T+	c #0B68F7",
"U+	c #0560F4",
"V+	c #0253E6",
"W+	c #013DBE",
"X+	c #026AFE",
"Y+	c #0E50ED",
"Z+	c #1C5BEF",
"`+	c #2863F0",
" @	c #2F68F0",
".@	c #336BF1",
"+@	c #346CF1",
"@@	c #316CF2",
"#@	c #316DF2",
"$@	c #2E6FF2",
"%@	c #2A70F2",
"&@	c #2570F3",
"*@	c #1F6FF3",
"=@	c #196DF4",
"-@	c #136AF4",
";@	c #0760F3",
">@	c #025AF0",
",@	c #004DE2",
"'@	c #003AB9",
")@	c #E5EEFD",
"!@	c #285EDF",
"~@	c #134FDF",
"{@	c #1B55DF",
"]@	c #215AE2",
"^@	c #255CE1",
"/@	c #265DE0",
"(@	c #245CE1",
"_@	c #235EE2",
":@	c #215EE2",
"<@	c #1E5EE2",
"[@	c #1B5FE5",
"}@	c #165EE5",
"|@	c #135DE6",
"1@	c #0E5BE5",
"2@	c #0958E6",
"3@	c #0454E6",
"4@	c #014EE2",
"5@	c #0045D3",
"6@	c #1F4EB8",
"7@	c #679EF6",
"8@	c #D0DAF1",
"9@	c #2856C3",
"0@	c #0D3FB6",
"a@	c #1144BD",
"b@	c #1245BB",
"c@	c #1445B9",
"d@	c #1244B9",
"e@	c #1345BC",
"f@	c #1346BD",
"g@	c #1045BE",
"h@	c #0D45C0",
"i@	c #0A45C1",
"j@	c #0844C3",
"k@	c #033FC0",
"l@	c #013FC3",
"m@	c #003BBE",
"n@	c #1F4EB9",
"o@	c #CFD8ED",
"p@	c #0566FB",
"q@	c #669BF5",
"r@	c #E5EDFD",
"s@	c #0046E0",
"t@	c #0143CF",
"u@	c #0A5CE5",
"v@	c #B3C4EF",
"w@	c #F4F6FD",
"x@	c #CFD3DA",
"y@	c #1F3B5F",
"z@	c #002453",
"A@	c #002557",
"B@	c #002658",
"C@	c #00285C",
"D@	c #002A61",
"E@	c #002D67",
"F@	c #002F6B",
"G@	c #002F6C",
"H@	c #003273",
"I@	c #003478",
"J@	c #00357B",
"K@	c #00377F",
"L@	c #003780",
"M@	c #003984",
"N@	c #003882",
"O@	c #1F5295",
"P@	c #CFDAE9",
"Q@	c #002A62",
"R@	c #003070",
"S@	c #003275",
"T@	c #003883",
"U@	c #003A88",
"V@	c #003D8F",
"W@	c #003E90",
"X@	c #004094",
"Y@	c #004299",
"Z@	c #00439B",
"`@	c #00449E",
" #	c #00459F",
".#	c #0045A1",
"+#	c #0045A0",
"@#	c #1F5AA8",
"##	c #002452",
"$#	c #003170",
"%#	c #003B8B",
"&#	c #003C8F",
"*#	c #003E94",
"=#	c #004099",
"-#	c #00429D",
";#	c #0044A2",
">#	c #0046A5",
",#	c #0048A8",
"'#	c #0049AB",
")#	c #004AAC",
"!#	c #004AAD",
"~#	c #004BAE",
"{#	c #004BAF",
"]#	c #004BAD",
"^#	c #003377",
"/#	c #003D92",
"(#	c #003F97",
"_#	c #00419D",
":#	c #0043A1",
"<#	c #0045A4",
"[#	c #0047A8",
"}#	c #0048AB",
"|#	c #0049AD",
"1#	c #004AAE",
"2#	c #004CB0",
"3#	c #004DB1",
"4#	c #004DB2",
"5#	c #002555",
"6#	c #003D90",
"7#	c #00409C",
"8#	c #0042A1",
"9#	c #0044A5",
"0#	c #0046A8",
"a#	c #0047AA",
"b#	c #0049AC",
"c#	c #00275A",
"d#	c #003781",
"e#	c #003F95",
"f#	c #0045A9",
"g#	c #0046AA",
"h#	c #0047AC",
"i#	c #004BB0",
"j#	c #004EB3",
"k#	c #00295F",
"l#	c #003985",
"m#	c #00419B",
"n#	c #0043A2",
"o#	c #0044A6",
"p#	c #0048AD",
"q#	c #0049AE",
"r#	c #004AAF",
"s#	c #004CB1",
"t#	c #004FB3",
"u#	c #004FB4",
"v#	c #002B63",
"w#	c #003B8A",
"x#	c #00439F",
"y#	c #0045A5",
"z#	c #0047AB",
"A#	c #0050B5",
"B#	c #0051B6",
"C#	c #002D68",
"D#	c #0045A3",
"E#	c #0052B7",
"F#	c #0053B8",
"G#	c #0054B9",
"H#	c #003F93",
"I#	c #0047A7",
"J#	c #0055BA",
"K#	c #0056BB",
"L#	c #0057BC",
"M#	c #003172",
"N#	c #004095",
"O#	c #0048AA",
"P#	c #0058BD",
"Q#	c #0059BE",
"R#	c #005ABF",
"S#	c #0055B9",
"T#	c #005CC1",
"U#	c #005DC2",
"V#	c #005EC3",
"W#	c #00449D",
"X#	c #78A2D8",
"Y#	c #005FC4",
"Z#	c #0060C5",
"`#	c #00367E",
" $	c #0061C6",
".$	c #0059BD",
"+$	c #0062C6",
"@$	c #005ABE",
"#$	c #0054B8",
"$$	c #003881",
"%$	c #0046A1",
"&$	c #004EB2",
"*$	c #005CC0",
"=$	c #005FC3",
"-$	c #0060C4",
";$	c #0058BC",
">$	c #005BC0",
",$	c #1F5294",
"'$	c #0046A2",
")$	c #1F66BE",
"!$	c #CFDAE8",
"~$	c #1F5BA9",
"{$	c #1F66BF",
"]$	c #CFDEF1",
"^$	c #0A67F9",
". . . . . . . . . . . . . . . . . . . . . . . ",
"+ + + + + + + + + + + + + + + + + + + + + + + ",
"@ # $ % & & & & & & & & & & & & & & & & $ # @ ",
"* = - ; > , ' ) ! ~ { { ] ] ^ ^ / ( _ : < = * ",
"* & [ } | 1 2 3 4 5 6 7 8 9 0 a b c d e f g * ",
"* & h i j k l m n o p 6 q r s t u v w x y & * ",
"z & A k B C D E F G H I J K L ~ c M N O P & z ",
"z & Q R S D T U V W X Y Z `  ...+.@.#.$.%.& z ",
"&.& ' 3 *.E =.-.;.X >.,.'.).!.~.{.].^./.%.& &.",
"z & (.o E _.:.<.[.}.|.1.2.3.4.5.6.7.8.9.0.& z ",
"z & (.> a.U b.c.d.e.f.g.h.i.j.k.l.m.n.o.p.& z ",
"q.& r.s r s.H W t.u.v.w.x.y.z.A.B.C.D.E.F.& q.",
"q.& G.H.I.H I.J.' K.L.M.N.O.P.Q.R.S.T.U.V.& q.",
"W.& X.Y.Z.`. +Q .+++@+#+$+%+&+*+=+-+;+>+,+& W.",
"'+& )+~ !+Q ~+{+]+^+/+(+_+:+<+[+}+|+1+2+3+& '+",
"4+& 5+6+7+8+& & & & & & & 9+0+a+b+c+d+e+f+& 4+",
"g+& h+2.! i+& & & & & & & j+k+l+m+n+o+p+q+& g+",
"r+& s+t+u+v+& & & & & & & w+x+y+z+A+B+C+D+& r+",
"E+& F+G+@.H+I+J+K+L+M+N+O+P+Q+R+S+T+U+V+W+& E+",
"X+& Y+Z+`+ @.@+@@@#@$@%@&@*@=@-@o+;@>@,@'@& X+",
"X+)@!@~@{@]@^@/@(@_@:@<@[@}@|@1@2@3@4@5@6@& X+",
"X+7@8@9@0@a@b@c@d@e@f@g@h@i@j@q+k@l@m@n@o@7@X+",
"E+p@q@& & & & & & & & & & & & & & & & r@q@p@E+",
"g+g+g+g+g+g+g+g+g+g+g+g+g+g+g+g+g+g+g+g+g+g+g+",
"s@s@s@s@s@s@s@s@s@s@s@s@s@s@s@s@s@s@s@s@s@s@s@",
"t@t@t@t@t@t@t@t@t@t@t@t@t@t@t@t@t@t@t@t@t@t@t@",
". . . . . . . . . . . . . . . . . . . . . . . ",
"+ + + + + + + + + + + + + + + + + + + + + + + ",
"@ u@v@w@& & & & & & & & & & & & & & & w@v@u@@ ",
"* v@x@y@z@A@B@C@D@E@F@G@H@I@J@K@L@M@N@O@P@v@* ",
"* w@y@Q@R@S@I@K@T@U@V@W@X@Y@Z@`@ #.#+#.#@#w@* ",
"* & ##$#N@%#&#*#=#-#;#>#,#'#)#!#~#~#{#~#]#& * ",
"z & z@^#%#/#(#_#:#<#[#}#|#1#2#3#3#3#4#4#4#& z ",
"z & 5#J@6#(#7#8#9#0#a#'#b#1#{#2#3#3#4#4#4#& z ",
"&.& c#d#e#_#8#9#f#g#h#|#1#i#3#3#3#3#j#4#4#& &.",
"z & k#l#m#n#o#g#h#p#q#r#s#4#j#t#u#u#u#j#4#& z ",
"z & v#w#x#y#0#z#q#q#r#s#4#u#A#A#B#A#A#u#j#& z ",
"q.& C#V@D#[#z#p#r#i#s#j#A#E#F#G#G#F#F#B#u#& q.",
"q.& G@H#I#}#b#q#{#s#j#A#E#J#K#L#L#K#J#F#A#& q.",
"W.& M#N#O#b#|#1#2#4#A#E#J#P#Q#R#R#Q#P#J#B#& W.",
"'+& ^#Y@b#1#1#i#3#u#E#S#L#R#T#U#V#T#R#K#B#& '+",
"4+& J@W#]#2#X#X#X#X#X#X#X#T#V#Y#Z#V#T#P#E#& 4+",
"g+& `#`@~#3#X#X#X#X#X#X#X#U#Y#Z# $Y#U#.$F#& g+",
"r+& d#+#~#3#X#X#X#X#X#X#X#U#Y# $+$Z#V#@$#$& r+",
"E+& $$%$~#3#3#&$j#A#F#K#Q#*$V#=$Z#-$U#Q#F#& E+",
"X+& T@.#{#4#4#j#j#A#F#J#;$R#T#U#V#U#>$L#B#& X+",
"X+w@,$'${#4#4#4#4#u#B#F#J#L#P#Q#R#Q#L#G#)$w@X+",
"X+v@!$~$]#4#4#4#4#j#u#A#B#E#E#F#G#F#E#{$]$v@X+",
"E+^$v@w@& & & & & & & & & & & & & & & w@v@^$E+",
"g+g+g+g+g+g+g+g+g+g+g+g+g+g+g+g+g+g+g+g+g+g+g+",
"s@s@s@s@s@s@s@s@s@s@s@s@s@s@s@s@s@s@s@s@s@s@s@",
"t@t@t@t@t@t@t@t@t@t@t@t@t@t@t@t@t@t@t@t@t@t@t@"};
