/* XPM */
static char * titleIT_xpm[] = {
"16 26 17 1",
" 	c None",
".	c #7EA2E4",
"+	c #7B9DE1",
"@	c #7A99E0",
"#	c #7996DE",
"$	c #7A96DF",
"%	c #7A96E0",
"&	c #7B97E0",
"*	c #7B99E1",
"=	c #7D9BE3",
"-	c #7F9FE6",
";	c #7FA2E6",
">	c #80A5E7",
",	c #81A7E8",
"'	c #82A9E9",
")	c #7E9DE5",
"!	c #7A93DF",
"................",
"++++++++++++++++",
"@@@@@@@@@@@@@@@@",
"################",
"################",
"################",
"$$$$$$$$$$$$$$$$",
"$$$$$$$$$$$$$$$$",
"$$$$$$$$$$$$$$$$",
"%%%%%%%%%%%%%%%%",
"&&&&&&&&&&&&&&&&",
"****************",
"****************",
"================",
"================",
"----------------",
";;;;;;;;;;;;;;;;",
">>>>>>>>>>>>>>>>",
",,,,,,,,,,,,,,,,",
"''''''''''''''''",
"''''''''''''''''",
",,,,,,,,,,,,,,,,",
">>>>>>>>>>>>>>>>",
"))))))))))))))))",
"!!!!!!!!!!!!!!!!",
"!!!!!!!!!!!!!!!!"};
