/* XPM */
static char * logout_xpm[] = {
"24 24 401 2",
"  	c None",
". 	c #CBD4DF",
"+ 	c #FFFFFF",
"@ 	c #FCF8F1",
"# 	c #E6B977",
"$ 	c #E1A958",
"% 	c #E0A653",
"& 	c #DEA24C",
"* 	c #DDA148",
"= 	c #DD9E44",
"- 	c #DB9B3E",
"; 	c #DB9A3C",
"> 	c #DC9B3D",
", 	c #DB9B3C",
"' 	c #DB993A",
") 	c #DA9836",
"! 	c #DA9735",
"~ 	c #D9952F",
"{ 	c #D9942E",
"] 	c #D9932D",
"^ 	c #D79026",
"/ 	c #D58C20",
"( 	c #CC8419",
"_ 	c #CB984E",
": 	c #F9F5F0",
"< 	c #CAD4DF",
"[ 	c #E8BD7E",
"} 	c #EBC58E",
"| 	c #E9C286",
"1 	c #E6B978",
"2 	c #E4B46C",
"3 	c #E4B169",
"4 	c #E3B065",
"5 	c #E2AD61",
"6 	c #E2AC5E",
"7 	c #E1AA5B",
"8 	c #E1AA5A",
"9 	c #E1A957",
"0 	c #E0A652",
"a 	c #DFA551",
"b 	c #DEA44C",
"c 	c #DEA147",
"d 	c #DC9D3E",
"e 	c #D38E29",
"f 	c #BE7E1C",
"g 	c #B78B4B",
"h 	c #ECC792",
"i 	c #EECEA0",
"j 	c #ECCA96",
"k 	c #E9C186",
"l 	c #E7BB7A",
"m 	c #E6B874",
"n 	c #E5B56F",
"o 	c #E4B36B",
"p 	c #E3B269",
"q 	c #E3B066",
"r 	c #EAC48A",
"s 	c #F3DCBA",
"t 	c #F8EAD7",
"u 	c #F6E5CB",
"v 	c #EDCE9E",
"w 	c #DB9B3D",
"x 	c #D49230",
"y 	c #C18121",
"z 	c #9E6511",
"A 	c #E1A857",
"B 	c #EAC48B",
"C 	c #ECCA98",
"D 	c #EBC68F",
"E 	c #E9BF81",
"F 	c #E6B976",
"G 	c #E5B670",
"H 	c #E5B36B",
"I 	c #E3B067",
"J 	c #E4B36C",
"K 	c #F6E5CD",
"L 	c #EAC388",
"M 	c #DA9A3A",
"N 	c #D49331",
"O 	c #C28325",
"P 	c #A06714",
"Q 	c #DFA550",
"R 	c #E8BD7F",
"S 	c #EAC38A",
"T 	c #E9C083",
"U 	c #E6BA78",
"V 	c #E4B46D",
"W 	c #E3B068",
"X 	c #E2AE62",
"Y 	c #E1AA5D",
"Z 	c #F6E4CB",
"` 	c #FBF4E9",
" .	c #EAC48D",
"..	c #E0A651",
"+.	c #E1AB5C",
"@.	c #EDCE9F",
"#.	c #FDF9F3",
"$.	c #E8BE81",
"%.	c #C28428",
"&.	c #A16A18",
"*.	c #DEA149",
"=.	c #E5B773",
"-.	c #E7BC7C",
";.	c #E4B46E",
">.	c #E3AF65",
",.	c #E1AB5F",
"'.	c #E0A859",
").	c #E7BB7E",
"!.	c #F9EDDC",
"~.	c #DEA24E",
"{.	c #DB9A3E",
"].	c #DA9838",
"^.	c #DA9736",
"/.	c #DA9734",
"(.	c #FDF8F2",
"_.	c #D7993D",
":.	c #C3862A",
"<.	c #A26B1B",
"[.	c #DD9F46",
"}.	c #E6B773",
"|.	c #E2AC61",
"1.	c #E1A95B",
"2.	c #E0A655",
"3.	c #F5E2C7",
"4.	c #E5B572",
"5.	c #DB9939",
"6.	c #E8BE80",
"7.	c #EFD0A3",
"8.	c #DA952C",
"9.	c #EFD1A3",
"0.	c #E4BB7D",
"a.	c #C4862A",
"b.	c #A26C1B",
"c.	c #DC9C40",
"d.	c #E5B36C",
"e.	c #E4B26A",
"f.	c #E1AB5E",
"g.	c #E0A758",
"h.	c #DFA452",
"i.	c #F6E7D2",
"j.	c #DC9C41",
"k.	c #DB9A3B",
"l.	c #DB9835",
"m.	c #F3DEBC",
"n.	c #D99428",
"o.	c #E3AF5F",
"p.	c #EAC996",
"q.	c #C48729",
"r.	c #A26C1A",
"s.	c #DC9C3F",
"t.	c #E1AD5F",
"u.	c #E3AF64",
"v.	c #E0A95B",
"w.	c #DFA655",
"x.	c #DEA34F",
"y.	c #F6E7D1",
"z.	c #DC9B3E",
"A.	c #DB9A38",
"B.	c #DB9832",
"C.	c #DA972C",
"D.	c #E2AF5D",
"E.	c #DB9B32",
"F.	c #DA9624",
"G.	c #E2AF5C",
"H.	c #EAC995",
"I.	c #C58828",
"J.	c #A36D1A",
"K.	c #DB9A3A",
"L.	c #E0A958",
"M.	c #E2AC5F",
"N.	c #E2AD60",
"O.	c #E2AB5E",
"P.	c #E1A859",
"Q.	c #F7E7D1",
"R.	c #E0AA56",
"S.	c #DC9C38",
"T.	c #DC9B32",
"U.	c #DC9B2C",
"V.	c #DB9A27",
"W.	c #DB9923",
"X.	c #DC9A22",
"Y.	c #EFD29E",
"Z.	c #E5BE79",
"`.	c #C58925",
" +	c #A36C18",
".+	c #DA9634",
"++	c #E1A95A",
"@+	c #E1AA5C",
"#+	c #E1A858",
"$+	c #DFA654",
"%+	c #EAC690",
"&+	c #E1AC56",
"*+	c #DD9F38",
"=+	c #DD9F32",
"-+	c #DD9F2B",
";+	c #DD9E26",
">+	c #DD9E22",
",+	c #E3B049",
"'+	c #FDF9F1",
")+	c #D99F32",
"!+	c #C68922",
"~+	c #A46C15",
"{+	c #D99531",
"]+	c #DEA34C",
"^+	c #E0A755",
"/+	c #E0A858",
"(+	c #E0A857",
"_+	c #EBC792",
":+	c #FDF9F4",
"<+	c #E4B367",
"[+	c #DEA23F",
"}+	c #E1A745",
"|+	c #E6BA65",
"1+	c #DEA42C",
"2+	c #E1A834",
"3+	c #EDCB82",
"4+	c #ECC981",
"5+	c #D89B21",
"6+	c #C78B1E",
"7+	c #A56D13",
"8+	c #D9932C",
"9+	c #DEA046",
"0+	c #E0A856",
"a+	c #ECC894",
"b+	c #E5B56C",
"c+	c #DFA545",
"d+	c #E1AA4B",
"e+	c #F9EEDA",
"f+	c #EDCD7F",
"g+	c #DFA51C",
"h+	c #D99E1C",
"i+	c #C88C1A",
"j+	c #A56C10",
"k+	c #D79025",
"l+	c #DEA24A",
"m+	c #E6B66F",
"n+	c #E0A54B",
"o+	c #DFA646",
"p+	c #F9EEDB",
"q+	c #F9EFD9",
"r+	c #F8EACA",
"s+	c #F8EAC9",
"t+	c #F1D690",
"u+	c #E6B839",
"v+	c #E2AC1A",
"w+	c #E0A919",
"x+	c #DAA118",
"y+	c #C98C15",
"z+	c #A66C0D",
"A+	c #D68D21",
"B+	c #DB9A39",
"C+	c #DD9F45",
"D+	c #EAC58D",
"E+	c #DFA54C",
"F+	c #DFA549",
"G+	c #E0A745",
"H+	c #FDFAF3",
"I+	c #EBC673",
"J+	c #E3AF2C",
"K+	c #E3B027",
"L+	c #E3B121",
"M+	c #E3B11B",
"N+	c #E2AF18",
"O+	c #E1AA15",
"P+	c #DAA112",
"Q+	c #C98B10",
"R+	c #A56A09",
"S+	c #D68B1C",
"T+	c #DA9732",
"U+	c #DC9C3E",
"V+	c #EBC58F",
"W+	c #DFA44B",
"X+	c #E1AA55",
"Y+	c #F5E3C5",
"Z+	c #EDCD94",
"`+	c #F9EFDA",
" @	c #F4E1B2",
".@	c #E3B12B",
"+@	c #E4B225",
"@@	c #E4B320",
"#@	c #E4B31A",
"$@	c #E3B014",
"%@	c #E1AC10",
"&@	c #DAA10D",
"*@	c #C98B0B",
"=@	c #A66A06",
"-@	c #D58917",
";@	c #D8932C",
">@	c #DB9938",
",@	c #F6E7D0",
"'@	c #DEA249",
")@	c #E0A752",
"!@	c #F9EEDC",
"~@	c #FAEFD9",
"{@	c #E4B33D",
"]@	c #E4B22A",
"^@	c #E4B324",
"/@	c #E4B41E",
"(@	c #E5B518",
"_@	c #E4B212",
":@	c #E2AD0C",
"<@	c #DAA008",
"[@	c #C98806",
"}@	c #A56904",
"|@	c #D48713",
"1@	c #D78F25",
"2@	c #D99530",
"3@	c #FBF3E7",
"4@	c #F9EDDB",
"5@	c #F6E7CE",
"6@	c #F9EED9",
"7@	c #E2AD3E",
"8@	c #E1AC2D",
"9@	c #E3AF26",
"0@	c #E4B21B",
"a@	c #E4B215",
"b@	c #E3AF0F",
"c@	c #E1AA09",
"d@	c #D99C05",
"e@	c #C88603",
"f@	c #A36602",
"g@	c #D2840F",
"h@	c #D58B1D",
"i@	c #D79127",
"j@	c #F1D9B3",
"k@	c #DC9C35",
"l@	c #DC9E34",
"m@	c #DDA130",
"n@	c #E0A727",
"o@	c #E1AA22",
"p@	c #E1AB1C",
"q@	c #E1AC17",
"r@	c #E1AD11",
"s@	c #E1AA0B",
"t@	c #DFA507",
"u@	c #D89903",
"v@	c #C68302",
"w@	c #A16501",
"x@	c #C87C0B",
"y@	c #CE8416",
"z@	c #CF881F",
"A@	c #D18D27",
"B@	c #D2902D",
"C@	c #D3912F",
"D@	c #D3922D",
"E@	c #D4932C",
"F@	c #D5962B",
"G@	c #D59828",
"H@	c #D79C24",
"I@	c #D89E20",
"J@	c #DAA11C",
"K@	c #DAA218",
"L@	c #DAA213",
"M@	c #DAA10E",
"N@	c #D99D08",
"O@	c #D79804",
"P@	c #D08D01",
"Q@	c #BD7B01",
"R@	c #9A5F01",
"S@	c #C6D1DE",
"T@	c #C59145",
"U@	c #BA750F",
"V@	c #BC7915",
"W@	c #BE7C1A",
"X@	c #C08020",
"Y@	c #C08122",
"Z@	c #C08121",
"`@	c #C18120",
" #	c #C1831E",
".#	c #C2841C",
"+#	c #C5881A",
"@#	c #C78917",
"##	c #C88B12",
"$#	c #C78A10",
"%#	c #C6880D",
"&#	c #C88909",
"*#	c #C88705",
"=#	c #C68402",
"-#	c #AB6B01",
";#	c #AB8140",
">#	c #F9F5EF",
",#	c #B48645",
"'#	c #9B610A",
")#	c #9B620D",
"!#	c #9E6510",
"~#	c #9E6612",
"{#	c #9C6513",
"]#	c #9D6512",
"^#	c #A16811",
"/#	c #A16911",
"(#	c #A1680D",
"_#	c #A56A0B",
":#	c #A66B09",
"<#	c #A56A08",
"[#	c #A26706",
"}#	c #A46804",
"|#	c #A56703",
"1#	c #A56701",
"2#	c #9B5F01",
"3#	c #F7F4EF",
"4#	c #C6D0DE",
"    . + + + + + + + + + + + + + + + + + + .     ",
"  @ # $ % & * = - ; > , ' ) ! ~ { ] ^ / ( _ :   ",
"< # [ } | 1 2 3 4 5 6 7 8 9 0 a b c d ! e f g < ",
"+ 8 h i j k l m n o p q r s t u v 4 c w x y z + ",
"+ A B C D E F G H I J K + + + + + + L M N O P + ",
"+ Q R S T U V W X Y Z + `  ...+.@.#.+ $.N %.&.+ ",
"+ *.=.-.F ;.>.,.'.).+ !.~.{.].^./.$ + (._.:.<.+ ",
"+ [.o }.n 3 |.1.2.3.+ 4.{.5.6.+ 7.8.9.+ 0.a.b.+ ",
"+ c.4 d.e.>.f.g.h.i.+ j.k.l.r + m.n.o.+ p.q.r.+ ",
"+ s.t.>.u.5 v.w.x.y.+ z.A.B.C.D.E.F.G.+ H.I.J.+ ",
"+ K.L.M.N.O.P.2.x.Q.+ R.S.T.U.V.W.X.Y.+ Z.`. ++ ",
"+ .+a ++@+7 #+$+%++ #.&+*+=+-+;+>+,+'+'+)+!+~++ ",
"+ {+]+^+L./+(+_++ :+<+[+}+|+1+2+3+'++ 4+5+6+7++ ",
"+ 8+9+Q ^+0+a++ :+b+c+d+e++ + + + + f+g+h+i+j++ ",
"+ k+s.l+Q h + :+m+n+o+p++ q+r+s+t+u+v+w+x+y+z++ ",
"+ A+B+C+D++ + G E+F+G+H++ I+J+K+L+M+N+O+P+Q+R++ ",
"+ S+T+U++ + V+W+X+Y+Z+`++  @.@+@@@#@$@%@&@*@=@+ ",
"+ -@;@>@+ ,@'@)@!@+ + + ~@{@]@^@/@(@_@:@<@[@}@+ ",
"+ |@1@2@+ 3@@.4@+ 5@+ 6@7@8@9@L+0@a@b@c@d@e@f@+ ",
"+ g@h@i@+ + + + j@k@l@m@1+n@o@p@q@r@s@t@u@v@w@+ ",
"+ x@y@z@A@B@C@C@D@E@F@G@H@I@J@K@L@M@N@O@P@Q@R@+ ",
"S@T@U@V@W@X@Y@Y@Z@`@ #.#+#@###$#%#&#*#=#Q@-#;#S@",
"  >#,#'#)#!#~#{#]#~#^#/#(#_#:#<#[#}#|#1#2#;#3#  ",
"    4#+ + + + + + + + + + + + + + + + + + 4#    "};
