/* XPM */
static char * closeI_xpm[] = {
"25 52 618 2",
"  	c None",
". 	c #7DA1E2",
"+ 	c #7C9FE1",
"@ 	c #7C9DE1",
"# 	c #7B9AE1",
"$ 	c #7B99E1",
"% 	c #7B98E0",
"& 	c #7B97E0",
"* 	c #7A96DF",
"= 	c #7996DE",
"- 	c #7993DE",
"; 	c #7891DD",
"> 	c #788EDB",
", 	c #7689D9",
"' 	c #7A99E0",
") 	c #7999DE",
"! 	c #7895DD",
"~ 	c #7793DB",
"{ 	c #778EDB",
"] 	c #778BDB",
"^ 	c #7686D9",
"/ 	c #7584D8",
"( 	c #767FD8",
"_ 	c #8EA6E3",
": 	c #B5C5EE",
"< 	c #BDCCF0",
"[ 	c #BDCBEF",
"} 	c #BDCAEF",
"| 	c #BDCAEE",
"1 	c #BCC9EE",
"2 	c #BCC8EE",
"3 	c #BCC8ED",
"4 	c #BCC7ED",
"5 	c #8B9BDE",
"6 	c #7680D7",
"7 	c #747CD5",
"8 	c #727AD2",
"9 	c #8DA4E2",
"0 	c #B9BBDC",
"a 	c #B28FA8",
"b 	c #B1869E",
"c 	c #AF8198",
"d 	c #AF7D94",
"e 	c #AF7B91",
"f 	c #AE788E",
"g 	c #AE798F",
"h 	c #AE768C",
"i 	c #AD758B",
"j 	c #AD758A",
"k 	c #AD7186",
"l 	c #AC7086",
"m 	c #AC6E84",
"n 	c #AB6A80",
"o 	c #A9657B",
"p 	c #A36B85",
"q 	c #B2AED4",
"r 	c #8993DC",
"s 	c #BBC8EE",
"t 	c #B28EA8",
"u 	c #B399B5",
"v 	c #B49BB7",
"w 	c #B294AF",
"x 	c #B18DA7",
"y 	c #B189A4",
"z 	c #B186A1",
"A 	c #B0849F",
"B 	c #B0829D",
"C 	c #AF819C",
"D 	c #AF819B",
"E 	c #AF7F99",
"F 	c #AF7D97",
"G 	c #AE7A94",
"H 	c #AE7790",
"I 	c #AD728B",
"J 	c #AB6B84",
"K 	c #A2637C",
"L 	c #956582",
"M 	c #B0B7E8",
"N 	c #7276D1",
"O 	c #BBC7ED",
"P 	c #B086A0",
"Q 	c #B49BB9",
"R 	c #B49CBA",
"S 	c #B295B1",
"T 	c #B28FA9",
"U 	c #B18BA5",
"V 	c #B187A3",
"W 	c #B085A0",
"X 	c #AF839F",
"Y 	c #B0819D",
"Z 	c #B0809D",
"` 	c #AF7E9B",
" .	c #AF7C99",
"..	c #AE7995",
"+.	c #AE7691",
"@.	c #AD738D",
"#.	c #AB6D86",
"$.	c #A3647E",
"%.	c #8F5875",
"&.	c #B9BDEA",
"*.	c #7990DE",
"=.	c #B0809A",
"-.	c #B395B2",
";.	c #B396B3",
">.	c #B290AC",
",.	c #B18AA5",
"'.	c #B187A1",
").	c #B0839F",
"!.	c #B0809C",
"~.	c #AF7D99",
"{.	c #AF7B97",
"].	c #AE7692",
"^.	c #AD738E",
"/.	c #AD718B",
"(.	c #AC6F89",
"_.	c #AB6B85",
":.	c #A46580",
"<.	c #905A77",
"[.	c #BABEEA",
"}.	c #BBC7EE",
"|.	c #AF7E97",
"1.	c #B28FAA",
"2.	c #B28FAB",
"3.	c #E0CED9",
"4.	c #FFFFFF",
"5.	c #AF7B96",
"6.	c #AE7894",
"7.	c #AD7590",
"8.	c #AD728D",
"9.	c #AD7089",
"0.	c #AD6E88",
"a.	c #DEC4CE",
"b.	c #AC6C85",
"c.	c #AA6A84",
"d.	c #A46782",
"e.	c #915C7A",
"f.	c #BABEEB",
"g.	c #BCC7EE",
"h.	c #AF7B95",
"i.	c #B28AA5",
"j.	c #B18BA6",
"k.	c #B187A2",
"l.	c #AE738D",
"m.	c #AD708A",
"n.	c #AC6D87",
"o.	c #AC6A83",
"p.	c #AB6A83",
"q.	c #A56782",
"r.	c #915D7A",
"s.	c #BABFEB",
"t.	c #7683D9",
"u.	c #BCC6EE",
"v.	c #AF7991",
"w.	c #B186A2",
"x.	c #B084A0",
"y.	c #AE748F",
"z.	c #AE728C",
"A.	c #AD6F88",
"B.	c #AD6981",
"C.	c #AD6A82",
"D.	c #AB6A82",
"E.	c #A56781",
"F.	c #925D7A",
"G.	c #BBC0EC",
"H.	c #7783DA",
"I.	c #B0839E",
"J.	c #B0829E",
"K.	c #B07F9C",
"L.	c #B07C98",
"M.	c #AD718A",
"N.	c #AD687F",
"O.	c #AD677E",
"P.	c #AD6880",
"Q.	c #AC6A81",
"R.	c #A66781",
"S.	c #935D7A",
"T.	c #7A90DF",
"U.	c #AE758C",
"V.	c #B0809B",
"W.	c #B07E9B",
"X.	c #AF7C97",
"Y.	c #AE7A95",
"Z.	c #AE6B81",
"`.	c #AE697F",
" +	c #AD687E",
".+	c #AC697F",
"++	c #A6667F",
"@+	c #935C79",
"#+	c #7784DB",
"$+	c #7A93DF",
"%+	c #BCC7EF",
"&+	c #AE738A",
"*+	c #B07D97",
"=+	c #B07F9A",
"-+	c #B07F9B",
";+	c #B07E9A",
">+	c #AF7A94",
",+	c #AE7891",
"'+	c #AF6F84",
")+	c #AF6D81",
"!+	c #AF6A7F",
"~+	c #AF697D",
"{+	c #AD697E",
"]+	c #A7667E",
"^+	c #935C78",
"/+	c #BBC0ED",
"(+	c #BDC8EF",
"_+	c #AE7188",
":+	c #AF7B94",
"<+	c #B07F99",
"[+	c #B07E99",
"}+	c #AF7C95",
"|+	c #B06E82",
"1+	c #B06C7F",
"2+	c #AF6A7C",
"3+	c #AF697C",
"4+	c #AE687C",
"5+	c #A7657C",
"6+	c #945B77",
"7+	c #BCC1EE",
"8+	c #7987DE",
"9+	c #7786DC",
"0+	c #7D97E4",
"a+	c #BDC9F0",
"b+	c #AE7086",
"c+	c #AF7A92",
"d+	c #B07D96",
"e+	c #B17F98",
"f+	c #B17E99",
"g+	c #B07E98",
"h+	c #B0788D",
"i+	c #FAF6F7",
"j+	c #B16E7F",
"k+	c #B16C7D",
"l+	c #B06B7B",
"m+	c #AF697B",
"n+	c #A8647A",
"o+	c #955B76",
"p+	c #BCC3EE",
"q+	c #7A8BDE",
"r+	c #7D99E3",
"s+	c #BECAF1",
"t+	c #AE6F83",
"u+	c #AF798F",
"v+	c #B07C94",
"w+	c #B17E97",
"x+	c #B17B91",
"y+	c #B1798E",
"z+	c #B1768A",
"A+	c #B26D7C",
"B+	c #B16C7A",
"C+	c #AF6879",
"D+	c #A96477",
"E+	c #965B74",
"F+	c #BCC4EF",
"G+	c #7B8EE1",
"H+	c #7E9BE5",
"I+	c #BECBF1",
"J+	c #AE6D80",
"K+	c #AF778C",
"L+	c #B07B92",
"M+	c #B17D95",
"N+	c #B17C93",
"O+	c #B27C91",
"P+	c #B17A8E",
"Q+	c #B2788B",
"R+	c #B37686",
"S+	c #B26B79",
"T+	c #B16877",
"U+	c #A96376",
"V+	c #965B73",
"W+	c #BDC6F0",
"X+	c #7F9FE6",
"Y+	c #BECCF2",
"Z+	c #AE6C7E",
"`+	c #AF7589",
" @	c #B07A8E",
".@	c #B17C92",
"+@	c #E0CBD4",
"@@	c #B27D93",
"#@	c #B17D92",
"$@	c #B17C90",
"%@	c #B27A8D",
"&@	c #B2798A",
"*@	c #B37786",
"=@	c #B37583",
"-@	c #E1C5CA",
";@	c #B36B78",
">@	c #B16775",
",@	c #AA6273",
"'@	c #965A72",
")@	c #BEC6F0",
"!@	c #7C91E1",
"~@	c #7FA0E7",
"{@	c #BFCEF2",
"]@	c #AE6B7C",
"^@	c #AF7385",
"/@	c #AF778A",
"(@	c #B17B8F",
"_@	c #B17B8E",
":@	c #B17A8D",
"<@	c #B2798B",
"[@	c #B27888",
"}@	c #B37684",
"|@	c #B37481",
"1@	c #B3727E",
"2@	c #B36E7A",
"3@	c #B36B77",
"4@	c #B16774",
"5@	c #AA6272",
"6@	c #965B72",
"7@	c #BEC7F1",
"8@	c #7D94E4",
"9@	c #80A5E7",
"0@	c #BFCFF3",
"a@	c #AC6A7A",
"b@	c #AD7080",
"c@	c #AE7486",
"d@	c #AE778A",
"e@	c #AF788C",
"f@	c #AF798C",
"g@	c #AF788B",
"h@	c #AF7789",
"i@	c #B07687",
"j@	c #B17585",
"k@	c #B17482",
"l@	c #B2717F",
"m@	c #B26F7C",
"n@	c #B26C79",
"o@	c #B16976",
"p@	c #AF6673",
"q@	c #A76172",
"r@	c #945B72",
"s@	c #BEC9F2",
"t@	c #B8CAF0",
"u@	c #A67487",
"v@	c #A66B7C",
"w@	c #A66E80",
"x@	c #A77183",
"y@	c #A77285",
"z@	c #A77286",
"A@	c #A77185",
"B@	c #A87184",
"C@	c #A87083",
"D@	c #A86F81",
"E@	c #AA6F80",
"F@	c #AA6E7D",
"G@	c #AA6C7C",
"H@	c #AA6A79",
"I@	c #AA6877",
"J@	c #AA6674",
"K@	c #A86373",
"L@	c #A06072",
"M@	c #956882",
"N@	c #BECAF2",
"O@	c #94B0EA",
"P@	c #B7BBDB",
"Q@	c #9A7287",
"R@	c #936579",
"S@	c #96687B",
"T@	c #95677C",
"U@	c #94687D",
"V@	c #94677C",
"W@	c #96677C",
"X@	c #97667B",
"Y@	c #986579",
"Z@	c #986477",
"`@	c #996376",
" #	c #986275",
".#	c #986074",
"+#	c #996073",
"@#	c #965E72",
"##	c #956A82",
"$#	c #B4B5DA",
"%#	c #91A6E9",
"&#	c #7FA0E6",
"*#	c #93AEEA",
"=#	c #BFCEF3",
"-#	c #BFCDF3",
";#	c #BFCDF2",
">#	c #BFCCF2",
",#	c #B7C4EF",
"'#	c #91A5E8",
")#	c #7D93E4",
"!#	c #7C94E2",
"~#	c #7B93E1",
"{#	c #798DDE",
"]#	c #788DDD",
"^#	c #788ADD",
"/#	c #7789DB",
"(#	c #0363EC",
"_#	c #0361EB",
":#	c #0161EA",
"<#	c #025DE9",
"[#	c #005AE7",
"}#	c #0058E6",
"|#	c #0055E5",
"1#	c #0054E3",
"2#	c #0053E1",
"3#	c #0050E0",
"4#	c #014DDC",
"5#	c #004ADC",
"6#	c #004AD8",
"7#	c #0047D7",
"8#	c #0043D3",
"9#	c #003FD2",
"0#	c #003DCC",
"a#	c #0037CB",
"b#	c #0050E2",
"c#	c #1258E0",
"d#	c #B5C6EF",
"e#	c #F4F6FD",
"f#	c #1245CF",
"g#	c #0031C6",
"h#	c #0032C1",
"i#	c #DAD2D0",
"j#	c #643529",
"k#	c #5A1D0D",
"l#	c #5D1E0D",
"m#	c #5F1E0E",
"n#	c #63200E",
"o#	c #68210F",
"p#	c #6F2310",
"q#	c #732511",
"r#	c #752511",
"s#	c #7C2712",
"t#	c #822912",
"u#	c #852A13",
"v#	c #892B13",
"w#	c #8A2B14",
"x#	c #8E2D14",
"y#	c #8C2C14",
"z#	c #9D4732",
"A#	c #EBD8D3",
"B#	c #69220F",
"C#	c #782611",
"D#	c #7E2812",
"E#	c #932E15",
"F#	c #9A3016",
"G#	c #9C3116",
"H#	c #A03217",
"I#	c #A43418",
"J#	c #A73518",
"K#	c #AA3618",
"L#	c #AB3618",
"M#	c #AD3719",
"N#	c #AC3618",
"O#	c #B24E35",
"P#	c #002CC8",
"Q#	c #004BE0",
"R#	c #591C0D",
"S#	c #792711",
"T#	c #8D2C14",
"U#	c #962E15",
"V#	c #9A2F16",
"W#	c #A13117",
"X#	c #A63317",
"Y#	c #AA3418",
"Z#	c #AF3619",
"`#	c #B23719",
" $	c #B5391A",
".$	c #B73A1B",
"+$	c #B93B1B",
"@$	c #BA3B1B",
"#$	c #BB3B1B",
"$$	c #802812",
"%$	c #962F15",
"&$	c #9E3016",
"*$	c #A43216",
"=$	c #AA3317",
"-$	c #AE3518",
";$	c #B5381A",
">$	c #B8391A",
",$	c #BA3A1B",
"'$	c #BC3B1C",
")$	c #BD3C1C",
"!$	c #BE3D1C",
"~$	c #BF3D1C",
"{$	c #0036D2",
"]$	c #5B1D0D",
"^$	c #9C3016",
"/$	c #A43217",
"($	c #B8553E",
"_$	c #D59485",
":$	c #B33619",
"<$	c #B53719",
"[$	c #B8381A",
"}$	c #B9391B",
"|$	c #BA391B",
"1$	c #BC3B1B",
"2$	c #DC9887",
"3$	c #C85D42",
"4$	c #611F0E",
"5$	c #A23217",
"6$	c #D79585",
"7$	c #D89585",
"8$	c #B8371A",
"9$	c #BA391A",
"0$	c #BB3A1B",
"a$	c #DD9887",
"b$	c #C03E1D",
"c$	c #65200E",
"d$	c #902D15",
"e$	c #A73418",
"f$	c #AF3518",
"g$	c #B43619",
"h$	c #D99585",
"i$	c #DA9686",
"j$	c #DB9686",
"k$	c #BC3A1B",
"l$	c #BD3B1B",
"m$	c #BE3C1C",
"n$	c #DE9987",
"o$	c #C03F1D",
"p$	c #0038D8",
"q$	c #0029D0",
"r$	c #6A220F",
"s$	c #952F15",
"t$	c #AC3518",
"u$	c #B63719",
"v$	c #DC9786",
"w$	c #C2401D",
"x$	c #C2401E",
"y$	c #C13F1D",
"z$	c #0035D8",
"A$	c #004DE3",
"B$	c #702410",
"C$	c #9B3016",
"D$	c #B03619",
"E$	c #B9381A",
"F$	c #DF9A88",
"G$	c #C4421E",
"H$	c #C5431E",
"I$	c #C5431F",
"J$	c #0051E5",
"K$	c #9E3217",
"L$	c #B4381A",
"M$	c #DF9A87",
"N$	c #C6441F",
"O$	c #C74520",
"P$	c #C7451F",
"Q$	c #003DDC",
"R$	c #003AD9",
"S$	c #0051EB",
"T$	c #7B2711",
"U$	c #A13217",
"V$	c #B7391A",
"W$	c #E09B88",
"X$	c #E29D89",
"Y$	c #C94621",
"Z$	c #CA4721",
"`$	c #CA4821",
" %	c #C94620",
".%	c #C84620",
"+%	c #003BE2",
"@%	c #003BE0",
"#%	c #0051F0",
"$%	c #A53418",
"%%	c #B83A1B",
"&%	c #E19D89",
"*%	c #E39E89",
"=%	c #E0947C",
"-%	c #CC4A22",
";%	c #CD4A22",
">%	c #CB4922",
",%	c #C3411E",
"'%	c #0041E8",
")%	c #0040E1",
"!%	c #0055F1",
"~%	c #A93618",
"{%	c #DD9987",
"]%	c #E39F8A",
"^%	c #E59F8B",
"/%	c #E5A08B",
"(%	c #CE4C23",
"_%	c #0055F4",
":%	c #882B13",
"<%	c #E6A08B",
"[%	c #E6A18B",
"}%	c #CE4B23",
"|%	c #0047EF",
"1%	c #0046EA",
"2%	c #0059F8",
"3%	c #8B2C14",
"4%	c #AC3619",
"5%	c #D76B48",
"6%	c #CF4C23",
"7%	c #C94721",
"8%	c #005CF9",
"9%	c #BB3C1B",
"0%	c #BF3E1D",
"a%	c #CB4821",
"b%	c #CD4B23",
"c%	c #CC4922",
"d%	c #004CF3",
"e%	c #0060FC",
"f%	c #8D2D14",
"g%	c #BC3C1B",
"h%	c #C84520",
"i%	c #AE3719",
"j%	c #C94720",
"k%	c #C95839",
"l%	c #0051F4",
"m%	c #EAD7D3",
"n%	c #B34E35",
"o%	c #C03E1C",
"p%	c #C9583A",
"q%	c #F3DBD4",
"r%	c #1261F3",
"s%	c #1255EF",
"t%	c #0058F7",
"u%	c #0057F6",
"v%	c #004CEF",
"w%	c #0046E0",
"x%	c #0043DC",
"y%	c #0040DC",
"z%	c #003EDA",
"A%	c #0043CF",
". . + @ # $ $ % % & & & * * * = - - ; > > > > > , ",
"' ) = = ! - ; ~ ; > > { { { { { { ] , , ^ / / / ( ",
"- - _ : < < < [ [ [ [ [ } | | 1 2 3 4 4 5 6 7 7 8 ",
"; 9 0 a b c d e f g h h i j k l m n o p q r 7 7 8 ",
"; s t u v w x y z A B C D E F G H I J K L M 7 7 N ",
"; O P Q R S T U V W X Y Z `  ...+.@.#.$.%.&.( 7 8 ",
"*.O =.-.;.>.,.'.).!.~.{...].+.^./.(._.:.<.[.( ( 7 ",
"*.}.|.1.2.,.3.4.~.5.6.7.8.9.0.4.a.b.c.d.e.f.( ( 7 ",
"*.g.h.i.j.k.4.4.4.6.+.l.m.n.4.4.4.o.p.q.r.s.t.( 7 ",
"*.u.v.w.V x.Z 4.4.4.y.z.A.4.4.4.B.C.D.E.F.G.H.H.7 ",
"*.u.v.I.A J.K.L.4.4.4.M.4.4.4.N.O.P.Q.R.S.G.H.H.( ",
"T.g.U.V.Y Z W.X.Y.4.4.4.4.4.Z.`. + +.+++@+G.#+H.( ",
"$+%+&+*+=+-+;+X.>+,+4.4.4.'+)+!+~+~+{+]+^+/+#+#+( ",
"& (+_+:+<+=+[+*+}+4.4.4.4.4.|+1+2+3+4+5+6+7+8+9+H.",
"0+a+b+c+d+e+f+g+4.4.4.h+4.4.i+j+k+l+m+n+o+p+q+8+9+",
"r+s+t+u+v+w+e+4.4.4.x+y+z+4.4.4.A+B+C+D+E+F+G+G+8+",
"H+I+J+K+L+M+4.4.4.N+O+P+Q+R+4.4.4.S+T+U+V+W+G+G+q+",
"X+Y+Z+`+ @.@+@4.@@#@$@%@&@*@=@4.-@;@>@,@'@)@!@G+G+",
"~@{@]@^@/@ @$@$@(@_@:@<@[@}@|@1@2@3@4@5@6@7@8@8@G+",
"9@0@a@b@c@d@e@f@g@g@h@i@j@k@l@m@n@o@p@q@r@s@8@8@!@",
"9@t@u@v@w@x@y@z@A@B@C@D@E@F@G@H@I@J@K@L@M@N@0+8@!@",
"9@O@P@Q@R@S@T@U@V@W@W@X@Y@Z@`@ #.#+#@###$#%#0+8@!@",
"~@&#*#0@0@0@0@0@0@=#=#-#;#;#;#>#>#>#>#,#'#)#8@8@!@",
"r+r+r+0+0+0+0+8@8@8@8@!#!#~#!@!@!@!@!@G+G+G+G+G+G+",
"T.T.T.T.{#{#{#{#{#{#{#{#{#]#q+q+q+^#^#^#^#^#/#9+9+",
"T.T.T.T.{#{#{#{#{#{#{#{#{#]#q+q+q+^#^#^#^#^#/#9+9+",
"(#_#:#<#<#[#}#}#|#|#|#1#1#1#2#2#3#3#4#5#6#7#7#6#8#",
"}#|#1#2#2#3#3#4#4#5#5#5#6#6#6#6#7#7#8#8#9#0#0#0#a#",
"b#c#d#e#4.4.4.4.4.4.4.4.4.4.4.4.4.4.4.e#d#f#a#g#h#",
"3#d#i#j#k#l#m#n#o#p#q#r#s#t#u#v#w#x#y#z#A#d#g#g#h#",
"3#e#j#B#C#D#t#w#x#E#F#G#H#I#J#K#L#M#N#M#O#e#a#g#P#",
"Q#4.R#S#T#U#V#W#X#Y#Z#`# $.$+$@$@$#$#$#$@$4.a#a#P#",
"Q#4.R#$$%$&$*$=$-$`#;$>$,$'$)$!$!$!$~$~$~$4.{${$P#",
"Q#4.]$u#^$/$($_$:$<$[$}$|$1$)$2$3$!$~$~$~$4.{${$P#",
"Q#4.4$y#5$=$_$6$7$8$9$0$1$)$a$a$a$!$b$~$~$4.{${$P#",
"Q#4.c$d$e$f$g$h$i$j$k$l$m$a$n$n$o$b$b$b$~$4.p${$q$",
"Q#4.r$s$t$`#u$[$j$v$v$m$a$n$n$w$x$x$w$y$b$4.p$z$q$",
"A$4.B$C$D$;$E$|$k$v$a$n$n$F$G$H$I$G$G$x$b$4.p$z${$",
"J$4.r#K$L$>$|$0$l$m$n$M$F$I$N$O$O$P$N$G$y$4.Q$R$z$",
"S$4.T$U$V$,$,$1$m$a$M$F$W$X$Y$Z$`$ %.%I$w$4.+%@%z$",
"#%4.$$$%%%'$1$)$a$n$F$I$&%*%=%-%;%>%Z$P$,%4.'%)%@%",
"!%4.u#~%@$)$)$a${%M$G$N$Y$]%^%/%(%;%>%.%,%4.'%'%+%",
"_%4.:%K#@$!$a$a$n$w$I$O$Z$-%/%<%[%}%-% %G$4.|%1%'%",
"2%4.3%4%#$!$3${%o$x$I$O$Z$-%}%[%5%6%;%7%G$4.|%|%'%",
"8%4.3%M#9%!$!$0%b$w$G$N$ %a%;%b%6%(%c% %G$4.d%|%1%",
"e%4.f%M#g%~$~$b$b$w$G$I$h%Z$>%c%;%c%`$O$,%4.d%d%|%",
"e%e#z#i%g%~$~$~$~$b$w$G$I$O$h%j%Z$7%O$I$k%e#l%d%|%",
"e%d#m%n%@$~$~$~$~$o%y$y$w$,%,%G$G$G$,%p%q%d#l%d%|%",
"8%r%d#e#4.4.4.4.4.4.4.4.4.4.4.4.4.4.4.e#d#s%d%|%1%",
"t%t%u%_%l%_%l%l%_%_%_%_%#%v%#%_%l%d%d%|%|%|%|%|%|%",
"w%w%x%y%y%Q$Q$Q$z%y%Q$y%y%y%z%y%z%R$R$p$R$z$p$z$@%",
"A%A%A%A%A%A%A%A%A%A%A%A%A%A%A%A%A%A%A%A%A%A%A%A%@%"};
