/* XPM */
static char * frameATR_xpm[] = {
"5 30 40 1",
" 	c None",
".	c #003FD2",
"+	c #0031C6",
"@	c #076FFD",
"#	c #0058F3",
"$	c #003BD2",
"%	c #005CEC",
"&	c #0054E3",
"*	c #0043D3",
"=	c #003DDC",
"-	c #004AD8",
";	c #0037CB",
">	c #0018AB",
",	c #003DCC",
"'	c #0032C1",
")	c #0015A0",
"!	c #002AB7",
"~	c #0026AC",
"{	c #0022B9",
"]	c #0024A6",
"^	c #000E7D",
"/	c #002CC8",
"(	c #0020C8",
"_	c #0036D2",
":	c #0029D0",
"<	c #0035D8",
"[	c #003AD9",
"}	c #00138B",
"|	c #003BE0",
"1	c #0023D6",
"2	c #0040E1",
"3	c #002EDC",
"4	c #001592",
"5	c #0041E8",
"6	c #003BE2",
"7	c #0046EA",
"8	c #0047EF",
"9	c #0038EA",
"0	c #004CF3",
"a	c #0043CF",
"     ",
".+   ",
"@#$  ",
"%&*= ",
"-*;> ",
",;'')",
"+'!~)",
"+'{]^",
"+/{]^",
";/(]^",
"_/(~^",
"_/(~^",
"_/(]^",
"_:(~^",
"<:(~^",
"<_:!^",
"[<:~}",
"|<1!}",
"2|3!4",
"563!4",
"756'4",
"859/4",
"879+4",
"089'4",
"089'}",
"089'}",
"879'}",
"889'}",
"<|9'}",
"a|3'4"};
