/* XPM */
static char * frameAL_xpm[] = {
"4 32 6 1",
" 	c None",
".	c #0019CF",
"+	c #0732D9",
"@	c #166AEE",
"#	c #0855DD",
"$	c #0831D8",
".+@#",
".+@#",
".+@#",
".+@#",
".+@#",
".+@#",
".+@#",
".+@#",
".+@#",
".+@#",
".+@#",
".+@#",
".+@#",
".$@#",
".$@#",
".$@#",
".$@#",
".$@#",
".$@#",
".$@#",
".$@#",
".$@#",
".$@#",
".$@#",
".$@#",
".$@#",
".$@#",
".+@#",
".+@#",
".+@#",
".+@#",
".+@#"};
