/* XPM */
static char * frameATL_xpm[] = {
"5 30 54 1",
" 	c None",
".	c #014CD0",
"+	c #025DE9",
"@	c #0667F4",
"#	c #0041CA",
"$	c #0050E2",
"%	c #0053DA",
"&	c #0165EB",
"*	c #004BCD",
"=	c #005ADF",
"-	c #0032C1",
";	c #004ADC",
">	c #0024A6",
",	c #0018AB",
"'	c #003DCC",
")	c #0245D0",
"!	c #0047D7",
"~	c #0031C6",
"{	c #003FD2",
"]	c #004AD8",
"^	c #0050E0",
"/	c #001ABC",
"(	c #0037CB",
"_	c #003BD2",
":	c #0053E1",
"<	c #0036D2",
"[	c #0040DC",
"}	c #0054E3",
"|	c #0051E5",
"1	c #0058E6",
"2	c #0020C8",
"3	c #0038D8",
"4	c #0046E4",
"5	c #0055EA",
"6	c #0058EB",
"7	c #001FD2",
"8	c #003DDC",
"9	c #0055E5",
"0	c #003BE0",
"a	c #005CEC",
"b	c #0023D6",
"c	c #0046EA",
"d	c #0051EB",
"e	c #005FF2",
"f	c #004BE7",
"g	c #003BE2",
"h	c #004BEB",
"i	c #0058EE",
"j	c #001ACF",
"k	c #0160F5",
"l	c #005BF2",
"m	c #004DE3",
"n	c #004BE0",
"o	c #0043CF",
"     ",
"   ..",
"  .+@",
" #$%&",
" #*==",
"-;*%%",
"--#.%",
">-#.%",
",-')%",
",-'!%",
",~{]^",
",~{]^",
"/(_;:",
"/<[;}",
"/<[;|",
"/<[$1",
"234|5",
"234|6",
"78496",
"7045a",
"b0cde",
"b0f6e",
"7ghie",
"jghik",
"jghik",
"jghil",
"j0hil",
"j0hm}",
"j00n'",
"j00no"};
