/* XPM */
static char * frameITL_xpm[] = {
"5 30 48 1",
" 	c None",
".	c #485ECA",
"+	c #5E7DD8",
"@	c #5063CC",
"#	c #6585DC",
"$	c #7999DE",
"%	c #7793DB",
"&	c #7A9DDF",
"*	c #5B6FCF",
"=	c #7084D7",
"-	c #7895DD",
";	c #5B68CD",
">	c #6B78D0",
",	c #7689D9",
"'	c #768ED8",
")	c #727AD2",
"!	c #7584D8",
"~	c #7276D1",
"{	c #747CD5",
"]	c #7686D9",
"^	c #768EDB",
"/	c #767FD8",
"(	c #778EDB",
"_	c #7683D9",
":	c #7789DB",
"<	c #7783DA",
"[	c #778BDB",
"}	c #7990DE",
"|	c #7784DB",
"1	c #788DDD",
"2	c #7993DE",
"3	c #7786DC",
"4	c #7A93DF",
"5	c #788ADD",
"6	c #7A90DF",
"7	c #7A96E0",
"8	c #7A8BDE",
"9	c #7B97E0",
"0	c #798DDE",
"a	c #7B9AE1",
"b	c #7987DE",
"c	c #7D9BE3",
"d	c #7D99E3",
"e	c #7D9FE4",
"f	c #7C91E1",
"g	c #7F9FE6",
"h	c #7FA2E5",
"i	c #7B99E1",
"     ",
"   .+",
"  @#$",
" .#%&",
" *=%-",
";>,''",
";)!,'",
";)=,'",
";~{]'",
";~{]'",
";~{]^",
";~{]^",
";)/](",
";{_:(",
";{<[}",
";/|12",
";/3}4",
";<567",
";|849",
";|07a",
";b09c",
";b6de",
";bfcg",
";bfch",
";bfch",
";bfch",
";bfce",
";b69i",
";/5^^",
";/5^^"};
