/* XPM */
static char * restoreA_xpm[] = {
"23 52 488 2",
"  	c None",
". 	c #3E96FF",
"+ 	c #4198FF",
"@ 	c #3991FF",
"# 	c #2C8AFF",
"$ 	c #2C93FF",
"% 	c #238BFF",
"& 	c #2485FF",
"* 	c #036CFE",
"= 	c #0D6EFA",
"- 	c #93B4F2",
"; 	c #F3F6FD",
"> 	c #FFFFFF",
", 	c #94B4F1",
"' 	c #0B67F4",
") 	c #0165F6",
"! 	c #0465F1",
"~ 	c #94B3EF",
"{ 	c #DCE5FD",
"] 	c #739AF8",
"^ 	c #608CF7",
"/ 	c #5584F6",
"( 	c #4D7EF6",
"_ 	c #487AF5",
": 	c #4276F5",
"< 	c #4478F5",
"[ 	c #3E73F5",
"} 	c #3B71F5",
"| 	c #336CF4",
"1 	c #306AF4",
"2 	c #2864F4",
"3 	c #1F5DEF",
"4 	c #3467E0",
"5 	c #D2DBF2",
"6 	c #93B3EE",
"7 	c #035EE9",
"8 	c #015CE9",
"9 	c #769CF8",
"0 	c #90AFF9",
"a 	c #94B2F9",
"b 	c #85A7F8",
"c 	c #759CF8",
"d 	c #6E97F8",
"e 	c #6892F7",
"f 	c #6690F7",
"g 	c #628EF7",
"h 	c #5F8CF7",
"i 	c #5E8BF7",
"j 	c #5988F6",
"k 	c #5685F6",
"l 	c #5082F6",
"m 	c #497CF5",
"n 	c #3F75F5",
"o 	c #326BF2",
"p 	c #235CE3",
"q 	c #305CC5",
"r 	c #0055E3",
"s 	c #0057E4",
"t 	c #6590F7",
"u 	c #97B4F9",
"v 	c #9AB7FA",
"w 	c #89AAF9",
"x 	c #7AA0F8",
"y 	c #729AF8",
"z 	c #6D95F8",
"A 	c #6892F8",
"B 	c #658FF7",
"C 	c #618DF7",
"D 	c #5D8AF7",
"E 	c #5987F6",
"F 	c #5283F6",
"G 	c #4C7EF6",
"H 	c #4377F5",
"I 	c #376EF2",
"J 	c #285FE3",
"K 	c #1546B9",
"L 	c #004EDE",
"M 	c #5886F6",
"N 	c #8DADF9",
"O 	c #7FA3F8",
"P 	c #7199F8",
"Q 	c #6A93F8",
"R 	c #648EF7",
"S 	c #5E8AF7",
"T 	c #5986F7",
"U 	c #5482F6",
"V 	c #5180F6",
"W 	c #4B7CF5",
"X 	c #4A7CF5",
"Y 	c #3A72F4",
"Z 	c #346CF2",
"` 	c #2A61E3",
" .	c #1848BB",
"..	c #024DDA",
"+.	c #0152E0",
"@.	c #5282F6",
"#.	c #799FF8",
"$.	c #7CA1F8",
"%.	c #6791F8",
"&.	c #608BF7",
"*.	c #5985F7",
"=.	c #326CF4",
"-.	c #316BF4",
";.	c #3069F1",
">.	c #2C62E4",
",.	c #1D4CBC",
"'.	c #7099F8",
").	c #628CF8",
"!.	c #5B86F7",
"~.	c #5480F7",
"{.	c #2C69F5",
"].	c #2D69F5",
"^.	c #2E69F2",
"/.	c #2C63E5",
"(.	c #004ADD",
"_.	c #0055E6",
":.	c #4679F5",
"<.	c #658FF8",
"[.	c #5E89F7",
"}.	c #5783F7",
"|.	c #507EF6",
"1.	c #4A79F6",
"2.	c #4375F5",
"3.	c #3D71F5",
"4.	c #366EF4",
"5.	c #2F6BF5",
"6.	c #2B69F5",
"7.	c #2766F5",
"8.	c #2A68F5",
"9.	c #2C69F2",
"0.	c #2A62E4",
"a.	c #1C4CBD",
"b.	c #628DF8",
"c.	c #2D6BF5",
"d.	c #2869F5",
"e.	c #2266F5",
"f.	c #2567F5",
"g.	c #2968F2",
"h.	c #2963E4",
"i.	c #1B4BBD",
"j.	c #0056E8",
"k.	c #3C72F4",
"l.	c #5D89F7",
"m.	c #2C6FF5",
"n.	c #276CF5",
"o.	c #2069F6",
"p.	c #2268F5",
"q.	c #2569F2",
"r.	c #2562E6",
"s.	c #194BBE",
"t.	c #004BE2",
"u.	c #0054EC",
"v.	c #376EF4",
"w.	c #5181F6",
"x.	c #5785F7",
"y.	c #5281F6",
"z.	c #477BF6",
"A.	c #4179F6",
"B.	c #3B77F5",
"C.	c #2C72F6",
"D.	c #266FF6",
"E.	c #1E6BF6",
"F.	c #1F6AF6",
"G.	c #216AF3",
"H.	c #2162E6",
"I.	c #1649BE",
"J.	c #0055F1",
"K.	c #326BF4",
"L.	c #4B7DF5",
"M.	c #5483F6",
"N.	c #5684F7",
"O.	c #4D80F6",
"P.	c #487DF6",
"Q.	c #427CF6",
"R.	c #3C7AF6",
"S.	c #2D76F6",
"T.	c #1C6FF6",
"U.	c #1C6DF6",
"V.	c #1C6AF4",
"W.	c #1C61E6",
"X.	c #1248BF",
"Y.	c #004EEB",
"Z.	c #005AF2",
"`.	c #2B66F4",
" +	c #4E7FF6",
".+	c #5182F6",
"++	c #4D81F7",
"@+	c #487FF6",
"#+	c #437FF6",
"$+	c #3D7EF6",
"%+	c #2D7AF7",
"&+	c #2677F7",
"*+	c #2174F7",
"=+	c #1B71F7",
"-+	c #186EF7",
";+	c #186AF4",
">+	c #165FE7",
",+	c #0F47C0",
"'+	c #004EEF",
")+	c #015DF4",
"!+	c #2562F3",
"~+	c #3D73F4",
"{+	c #487BF5",
"]+	c #4E80F6",
"^+	c #4E81F6",
"/+	c #4B80F6",
"(+	c #477FF6",
"_+	c #427FF6",
":+	c #3C7FF6",
"<+	c #2D7CF7",
"[+	c #2679F8",
"}+	c #2077F7",
"|+	c #1973F7",
"1+	c #166FF7",
"2+	c #1369F4",
"3+	c #105DE8",
"4+	c #0A44BF",
"5+	c #0050F3",
"6+	c #005DF9",
"7+	c #1E5DF3",
"8+	c #497BF5",
"9+	c #2D7DF7",
"0+	c #257AF8",
"a+	c #1E77F8",
"b+	c #1773F8",
"c+	c #116DF7",
"d+	c #0D66F4",
"e+	c #0B59E7",
"f+	c #0641C0",
"g+	c #0055F4",
"h+	c #0162FA",
"i+	c #1859F3",
"j+	c #2E68F4",
"k+	c #3A71F4",
"l+	c #4277F5",
"m+	c #467AF5",
"n+	c #457AF6",
"o+	c #437BF6",
"p+	c #417CF6",
"q+	c #3D7DF6",
"r+	c #387DF6",
"s+	c #327DF7",
"t+	c #2A7CF8",
"u+	c #247AF8",
"v+	c #1D77F8",
"w+	c #1573F8",
"x+	c #0E6CF8",
"y+	c #0963F4",
"z+	c #0556E7",
"A+	c #023FBF",
"B+	c #0057F6",
"C+	c #0166FE",
"D+	c #1456F3",
"E+	c #2562F4",
"F+	c #3971F4",
"G+	c #3D74F5",
"H+	c #3D74F6",
"I+	c #3B75F5",
"J+	c #3976F5",
"K+	c #3777F5",
"L+	c #3278F6",
"M+	c #2C78F7",
"N+	c #2577F7",
"O+	c #1F76F7",
"P+	c #1972F7",
"Q+	c #116EF8",
"R+	c #0B68F7",
"S+	c #0560F4",
"T+	c #0253E6",
"U+	c #013DBE",
"V+	c #005AF8",
"W+	c #0269FE",
"X+	c #0E50ED",
"Y+	c #1C5BEF",
"Z+	c #2863F0",
"`+	c #2F68F0",
" @	c #336BF1",
".@	c #346CF1",
"+@	c #316CF2",
"@@	c #316DF2",
"#@	c #2E6FF2",
"$@	c #2A70F2",
"%@	c #2570F3",
"&@	c #1F6FF3",
"*@	c #196DF4",
"=@	c #136AF4",
"-@	c #0760F3",
";@	c #025AF0",
">@	c #004DE2",
",@	c #003AB9",
"'@	c #005EFC",
")@	c #285EDF",
"!@	c #134FDF",
"~@	c #1B55DF",
"{@	c #215AE2",
"]@	c #255CE1",
"^@	c #265DE0",
"/@	c #245CE1",
"(@	c #235EE2",
"_@	c #215EE2",
":@	c #1E5EE2",
"<@	c #1B5FE5",
"[@	c #165EE5",
"}@	c #135DE6",
"|@	c #0E5BE5",
"1@	c #0958E6",
"2@	c #0454E6",
"3@	c #014EE2",
"4@	c #0045D3",
"5@	c #1F4EB8",
"6@	c #D0DAF1",
"7@	c #2856C3",
"8@	c #0D3FB6",
"9@	c #1144BD",
"0@	c #1245BB",
"a@	c #1445B9",
"b@	c #1244B9",
"c@	c #1345BC",
"d@	c #1346BD",
"e@	c #1045BE",
"f@	c #0D45C0",
"g@	c #0A45C1",
"h@	c #0844C3",
"i@	c #033FC0",
"j@	c #013FC3",
"k@	c #003BBE",
"l@	c #1F4EB9",
"m@	c #CFD8ED",
"n@	c #93B2F2",
"o@	c #0266FB",
"p@	c #0C68F7",
"q@	c #93B4F1",
"r@	c #93B1F1",
"s@	c #0A5EF5",
"t@	c #0059F7",
"u@	c #0059F6",
"v@	c #0055F5",
"w@	c #0047E1",
"x@	c #0046DD",
"y@	c #0041DC",
"z@	c #0144CF",
"A@	c #0043CF",
"B@	c #086DFC",
"C@	c #A7BEF0",
"D@	c #F4F6FD",
"E@	c #0666F5",
"F@	c #A7BEEF",
"G@	c #CFD3DA",
"H@	c #1F3B5F",
"I@	c #002453",
"J@	c #002557",
"K@	c #002658",
"L@	c #00285C",
"M@	c #002A61",
"N@	c #002D67",
"O@	c #002F6B",
"P@	c #002F6C",
"Q@	c #003273",
"R@	c #003478",
"S@	c #00357B",
"T@	c #00377F",
"U@	c #003780",
"V@	c #003984",
"W@	c #003882",
"X@	c #1F5295",
"Y@	c #CFDAE9",
"Z@	c #002A62",
"`@	c #003070",
" #	c #003275",
".#	c #003883",
"+#	c #003A88",
"@#	c #003D8F",
"##	c #003E90",
"$#	c #004094",
"%#	c #004299",
"&#	c #00439B",
"*#	c #00449E",
"=#	c #00459F",
"-#	c #0045A1",
";#	c #0045A0",
">#	c #1F5AA8",
",#	c #002452",
"'#	c #003170",
")#	c #003B8B",
"!#	c #003C8F",
"~#	c #003E94",
"{#	c #004099",
"]#	c #00429D",
"^#	c #0044A2",
"/#	c #0046A5",
"(#	c #0048A8",
"_#	c #0049AB",
":#	c #004AAC",
"<#	c #004AAD",
"[#	c #004BAE",
"}#	c #004BAF",
"|#	c #004BAD",
"1#	c #003377",
"2#	c #003D92",
"3#	c #003F97",
"4#	c #00419D",
"5#	c #0043A1",
"6#	c #0045A4",
"7#	c #0047A8",
"8#	c #0048AB",
"9#	c #0049AD",
"0#	c #004AAE",
"a#	c #004CB0",
"b#	c #004DB1",
"c#	c #004DB2",
"d#	c #002555",
"e#	c #003D90",
"f#	c #00409C",
"g#	c #0042A1",
"h#	c #0044A5",
"i#	c #78A2D8",
"j#	c #00275A",
"k#	c #003781",
"l#	c #003F95",
"m#	c #0045A9",
"n#	c #004EB3",
"o#	c #00295F",
"p#	c #003985",
"q#	c #00419B",
"r#	c #0043A2",
"s#	c #0044A6",
"t#	c #0046AA",
"u#	c #0047AC",
"v#	c #0048AD",
"w#	c #0049AE",
"x#	c #004AAF",
"y#	c #004CB1",
"z#	c #004FB4",
"A#	c #002B63",
"B#	c #003B8A",
"C#	c #00439F",
"D#	c #0045A5",
"E#	c #0050B5",
"F#	c #0051B6",
"G#	c #002D68",
"H#	c #0045A3",
"I#	c #0052B7",
"J#	c #0053B8",
"K#	c #0054B9",
"L#	c #003F93",
"M#	c #0047A7",
"N#	c #0055BA",
"O#	c #0056BB",
"P#	c #0057BC",
"Q#	c #003172",
"R#	c #004095",
"S#	c #0048AA",
"T#	c #0049AC",
"U#	c #0058BD",
"V#	c #005ABF",
"W#	c #0059BE",
"X#	c #004BB0",
"Y#	c #0055B9",
"Z#	c #005CC1",
"`#	c #005DC2",
" $	c #005EC3",
".$	c #00449D",
"+$	c #004EB2",
"@$	c #005FC4",
"#$	c #0060C5",
"$$	c #00367E",
"%$	c #0061C6",
"&$	c #0059BD",
"*$	c #0062C6",
"=$	c #005ABE",
"-$	c #0054B8",
";$	c #003881",
">$	c #0046A1",
",$	c #005CC0",
"'$	c #005FC3",
")$	c #0060C4",
"!$	c #0058BC",
"~$	c #005BC0",
"{$	c #1F5294",
"]$	c #0046A2",
"^$	c #1F66BE",
"/$	c #CFDAE8",
"($	c #1F5BA9",
"_$	c #1F66BF",
":$	c #CFDEF1",
"<$	c #A7BDF0",
"[$	c #0767F9",
"}$	c #055CF6",
". . . . . . . . . . . . . . + . . . . @ . @ . ",
"# # # # # # # # # # # # # # # $ # % % & & & # ",
"* = - ; > > > > > > > > > > > > > > > > , ' ) ",
"! ~ { ] ^ / ( _ : < [ [ } } | | 1 2 3 4 5 6 7 ",
"8 > 9 0 a b c d e f g h i j k l m n o p q ; r ",
"s > t u v w x y z A B g C D E F G H I J K > L ",
"r > M w N O P Q R S T U V W X < n Y Z `  .> ..",
"+.> @.#.$.P %.&.*.> > > > > > > =.-.;.>.,.> ..",
"r > ( d '.Q ).!.~.> > > > > > > {.].^./.,.> (.",
"_.> :.A Q <.[.}.|.1.2.3.4.5.6.> 7.8.9.0.a.> (.",
"_.> :.^ b.&.> > > > > > > c.d.> e.f.g.h.i.> (.",
"j.> k.E D l.> > > > > > > m.n.> o.p.q.r.s.> t.",
"u.> v.w.x.T > y.( z.A.B.> C.D.> E.F.G.H.I.> t.",
"J.> K.L.M.N.> @.O.P.Q.R.> S.> > T.U.V.W.X.> Y.",
"Z.> `.<  +@.> .+++@+#+$+> %+&+*+=+-+;+>+,+> '+",
")+> !+~+{+]+> ^+/+(+_+:+> <+[+}+|+1+2+3+4+> 5+",
"6+> 7+4.: 8+> > > > > > > 9+0+a+b+c+d+e+f+> g+",
"h+> i+j+k+l+m+n+o+p+q+r+s+t+u+v+w+x+y+z+A+> B+",
"C+> D+E+-.F+G+H+I+J+K+L+M+N+O+P+Q+R+S+T+U+> V+",
"W+> X+Y+Z+`+ @.@+@@@#@$@%@&@*@=@d+-@;@>@,@> '@",
"W+; )@!@~@{@]@^@/@(@_@:@<@[@}@|@1@2@3@4@5@> '@",
"W+- 6@7@8@9@0@a@b@c@d@e@f@g@h@f+i@j@k@l@m@n@'@",
"o@p@q@> > > > > > > > > > > > > > > > ; r@s@t@",
"h+h+h+h+h+h+h+h+h+h+h+h+6+'@V+V+u@u@B+B+B+B+v@",
"w@w@w@w@w@w@w@w@w@w@w@w@w@t.x@w@w@w@w@w@x@y@y@",
"z@z@z@z@z@z@z@z@z@z@z@z@z@A@A@A@A@A@A@A@A@A@A@",
". . . . . . . . . . . . . . + . . . . @ . @ . ",
"# # # # # # # # # # # # # # # $ # % % & & & # ",
"* B@C@D@> > > > > > > > > > > > > > > D@C@E@) ",
"! F@G@H@I@J@K@L@M@N@O@P@Q@R@S@T@U@V@W@X@Y@F@7 ",
"8 D@H@Z@`@ #R@T@.#+#@###$#%#&#*#=#-#;#-#>#D@r ",
"s > ,#'#W@)#!#~#{#]#^#/#(#_#:#<#[#[#}#[#|#> L ",
"r > I@1#)#2#3#4#5#6#7#8#9#0#a#b#b#b#c#c#c#> ..",
"+.> d#S@e#3#f#g#h#i#i#i#i#i#i#i#b#b#c#c#c#> ..",
"r > j#k#l#4#g#h#m#i#i#i#i#i#i#i#b#b#n#c#c#> (.",
"_.> o#p#q#r#s#t#u#v#w#x#y#c#n#i#z#z#z#n#c#> (.",
"_.> A#B#C#D#i#i#i#i#i#i#i#z#E#i#F#E#E#z#n#> (.",
"j.> G#@#H#7#i#i#i#i#i#i#i#I#J#i#K#J#J#F#z#> t.",
"u.> P@L#M#8#i#w#}#y#n#E#i#N#O#i#P#O#N#J#E#> t.",
"J.> Q#R#S#T#i#0#a#c#E#I#i#U#i#i#V#W#U#N#F#> Y.",
"Z.> 1#%#T#0#i#X#b#z#I#Y#i#V#Z#`# $Z#V#O#F#> '+",
")+> S@.$|#a#i#b#+$E#J#O#i#Z# $@$#$ $Z#U#I#> 5+",
"6+> $$*#[#b#i#i#i#i#i#i#i#`#@$#$%$@$`#&$J#> g+",
"h+> k#;#[#b#b#+$z#F#K#P#V#`#@$%$*$#$ $=$-$> B+",
"C+> ;$>$[#b#b#+$n#E#J#O#W#,$ $'$#$)$`#W#J#> V+",
"W+> .#-#}#c#c#n#n#E#J#N#!$V#Z#`# $`#~$P#F#> '@",
"W+D@{$]$}#c#c#c#c#z#F#J#N#P#U#W#V#W#P#K#^$D@'@",
"W+C@/$($|#c#c#c#c#n#z#E#F#I#I#J#K#J#I#_$:$<$'@",
"o@[$C@D@> > > > > > > > > > > > > > > D@<$}$t@",
"h+h+h+h+h+h+h+h+h+h+h+h+6+'@V+V+u@u@B+B+B+B+v@",
"w@w@w@w@w@w@w@w@w@w@w@w@w@t.x@w@w@w@w@w@x@y@y@",
"z@z@z@z@z@z@z@z@z@z@z@z@z@A@A@A@A@A@A@A@A@A@A@"};
