/* XPM */
static char * taskbarbg_xpm[] = {
"16 30 25 1",
" 	c None",
".	c #3168D5",
"+	c #3888E9",
"@	c #4993E6",
"#	c #307BE5",
"$	c #286ADD",
"%	c #245DD7",
"&	c #2359D6",
"*	c #2257D5",
"=	c #2257D6",
"-	c #2157D7",
";	c #2259D7",
">	c #225AD9",
",	c #235BD9",
"'	c #235CDB",
")	c #245DDB",
"!	c #245EDC",
"~	c #255FDC",
"{	c #2660DD",
"]	c #2661DD",
"^	c #2662DF",
"/	c #2663E0",
"(	c #2561DE",
"_	c #1E50C4",
":	c #1941A5",
"................",
"++++++++++++++++",
"@@@@@@@@@@@@@@@@",
"################",
"$$$$$$$$$$$$$$$$",
"%%%%%%%%%%%%%%%%",
"&&&&&&&&&&&&&&&&",
"****************",
"****************",
"================",
"----------------",
";;;;;;;;;;;;;;;;",
">>>>>>>>>>>>>>>>",
",,,,,,,,,,,,,,,,",
"''''''''''''''''",
"))))))))))))))))",
"!!!!!!!!!!!!!!!!",
"))))))))))))))))",
"!!!!!!!!!!!!!!!!",
"~~~~~~~~~~~~~~~~",
"{{{{{{{{{{{{{{{{",
"]]]]]]]]]]]]]]]]",
"^^^^^^^^^^^^^^^^",
"^^^^^^^^^^^^^^^^",
"////////////////",
"////////////////",
"((((((((((((((((",
",,,,,,,,,,,,,,,,",
"________________",
"::::::::::::::::"};
