/* XPM */
static char * left_xpm[] = {
"11 17 3 1",
" 	c None",
".	c #FFFFFF",
"+	c #000000",
"...........",
".+++++++...",
".+++++++...",
".+++++++...",
".+++++++...",
".+++++++...",
".+++++++...",
".+++++++...",
".+++++++...",
".+++++++...",
".+++++++...",
".+++++++...",
".+++++++...",
"...........",
"           ",
"           ",
"           "};
