/* XPM */
static char * closeA_xpm[] = {
"25 52 521 2",
"  	c None",
". 	c #0363EC",
"+ 	c #0361EB",
"@ 	c #0161EA",
"# 	c #025DE9",
"$ 	c #005AE7",
"% 	c #0058E6",
"& 	c #0055E5",
"* 	c #0054E3",
"= 	c #0053E1",
"- 	c #0050E0",
"; 	c #014DDC",
"> 	c #004ADC",
", 	c #004AD8",
"' 	c #0047D7",
") 	c #0043D3",
"! 	c #003FD2",
"~ 	c #003DCC",
"{ 	c #0037CB",
"] 	c #0050E2",
"^ 	c #0552E0",
"/ 	c #6691E7",
"( 	c #E5ECFB",
"_ 	c #FFFFFF",
": 	c #6687DF",
"< 	c #053BCC",
"[ 	c #0031C6",
"} 	c #0032C1",
"| 	c #FAE1DC",
"1 	c #EB8B73",
"2 	c #E97B60",
"3 	c #E77155",
"4 	c #E66A4D",
"5 	c #E56648",
"6 	c #E46142",
"7 	c #E46344",
"8 	c #E45F3E",
"9 	c #E35C3B",
"0 	c #E25633",
"a 	c #E25330",
"b 	c #E04D28",
"c 	c #DC451F",
"d 	c #D05334",
"e 	c #EFD8D2",
"f 	c #EC8D76",
"g 	c #EFA390",
"h 	c #F0A694",
"i 	c #EE9A85",
"j 	c #EB8D75",
"k 	c #EA876E",
"l 	c #EA8168",
"m 	c #E97F66",
"n 	c #E97C62",
"o 	c #E8795F",
"p 	c #E8795E",
"q 	c #E87559",
"r 	c #E77256",
"s 	c #E66E50",
"t 	c #E56849",
"u 	c #E4603F",
"v 	c #E05532",
"w 	c #D04623",
"x 	c #B64B30",
"y 	c #E5EAFA",
"z 	c #002CC8",
"A 	c #004BE0",
"B 	c #E97F65",
"C 	c #F0A997",
"D 	c #F1AC9A",
"E 	c #EE9D89",
"F 	c #EC917A",
"G 	c #EB8B72",
"H 	c #EA856D",
"I 	c #E98168",
"J 	c #E87E65",
"K 	c #E97B61",
"L 	c #E8775D",
"M 	c #E87459",
"N 	c #E66F52",
"O 	c #E56A4C",
"P 	c #E46343",
"Q 	c #E15937",
"R 	c #D24A28",
"S 	c #AA3315",
"T 	c #E87458",
"U 	c #EFA18D",
"V 	c #ED957F",
"W 	c #EB8A71",
"X 	c #EA836A",
"Y 	c #E97D64",
"Z 	c #E8785E",
"` 	c #E77359",
" .	c #E76F54",
"..	c #E66D51",
"+.	c #E5684B",
"@.	c #E5684A",
"#.	c #E35C3A",
"$.	c #E05634",
"%.	c #D24C2A",
"&.	c #AC3618",
"*.	c #0036D2",
"=.	c #E76F52",
"-.	c #EC9179",
";.	c #EC937C",
">.	c #F7CCC2",
",.	c #E77259",
"'.	c #E76D53",
").	c #E5684D",
"!.	c #E46446",
"~.	c #E45F41",
"{.	c #E35B3A",
"].	c #E35938",
"^.	c #F3BBAD",
"/.	c #E25531",
"(.	c #DF5330",
"_.	c #D34E2C",
":.	c #AD3A1D",
"<.	c #EB876E",
"[.	c #EB8A70",
"}.	c #E46447",
"|.	c #E45F40",
"1.	c #E25634",
"2.	c #E2522D",
"3.	c #DF522E",
"4.	c #D34D2C",
"5.	c #E56546",
"6.	c #E97E65",
"7.	c #E8775E",
"8.	c #E46143",
"9.	c #E45D3D",
"0.	c #E35836",
"a.	c #E24E27",
"b.	c #E2502A",
"c.	c #E0512C",
"d.	c #D34D2A",
"e.	c #AD391C",
"f.	c #0038D8",
"g.	c #0029D0",
"h.	c #E87A60",
"i.	c #E87C62",
"j.	c #E8745B",
"k.	c #E76E54",
"l.	c #E24D24",
"m.	c #E24B22",
"n.	c #E24D25",
"o.	c #E05029",
"p.	c #D44C29",
"q.	c #AE391B",
"r.	c #0035D8",
"s.	c #004DE3",
"t.	c #E35D3C",
"u.	c #E8765D",
"v.	c #E66F53",
"w.	c #E56B4E",
"x.	c #E45127",
"y.	c #E44F23",
"z.	c #E34C20",
"A.	c #E34D22",
"B.	c #E14F25",
"C.	c #D54A25",
"D.	c #AF3719",
"E.	c #0051E5",
"F.	c #E35937",
"G.	c #E76D51",
"H.	c #E87257",
"I.	c #E87359",
"J.	c #E77157",
"K.	c #E66E52",
"L.	c #E56747",
"M.	c #E5572C",
"N.	c #E55326",
"O.	c #E55022",
"P.	c #E54D1E",
"Q.	c #E54D1F",
"R.	c #E24E21",
"S.	c #D64921",
"T.	c #AF3516",
"U.	c #003DDC",
"V.	c #003AD9",
"W.	c #0051EB",
"X.	c #E25432",
"Y.	c #E5694B",
"Z.	c #E77054",
"`.	c #E77156",
" +	c #E87055",
".+	c #E66C4D",
"++	c #E75526",
"@+	c #E75221",
"#+	c #E64E1C",
"$+	c #E64D1C",
"%+	c #E34C1C",
"&+	c #D6461C",
"*+	c #B03312",
"=+	c #003BE2",
"-+	c #003BE0",
";+	c #0051F0",
">+	c #E14F2B",
",+	c #E66B4E",
"'+	c #E76F53",
")+	c #E66E51",
"!+	c #E7653D",
"~+	c #FEF5F1",
"{+	c #E85421",
"]+	c #E8501B",
"^+	c #E74D18",
"/+	c #E44A18",
"(+	c #D74216",
"_+	c #B2310F",
":+	c #0041E8",
"<+	c #0040E1",
"[+	c #0055F1",
"}+	c #E04B25",
"|+	c #E35E3D",
"1+	c #E56748",
"2+	c #E66C4E",
"3+	c #E66D50",
"4+	c #E76842",
"5+	c #E7653C",
"6+	c #E86236",
"7+	c #E95019",
"8+	c #E84C16",
"9+	c #E44713",
"0+	c #D83F10",
"a+	c #B12D0A",
"b+	c #0055F4",
"c+	c #DF451E",
"d+	c #E25836",
"e+	c #E46242",
"f+	c #E56749",
"g+	c #E66845",
"h+	c #E76741",
"i+	c #E7643B",
"j+	c #E86235",
"k+	c #EA5E2D",
"l+	c #E94A11",
"m+	c #E6440D",
"n+	c #D73B0B",
"o+	c #B12B06",
"p+	c #0047EF",
"q+	c #0046EA",
"r+	c #0059F8",
"s+	c #DE4018",
"t+	c #E1512E",
"u+	c #F5C1B5",
"v+	c #E66543",
"w+	c #E66541",
"x+	c #E6643D",
"y+	c #E76238",
"z+	c #E86032",
"A+	c #E95C2A",
"B+	c #EA5924",
"C+	c #F7B8A1",
"D+	c #E9480E",
"E+	c #E54009",
"F+	c #D73605",
"G+	c #B02702",
"H+	c #005CF9",
"I+	c #DD3C14",
"J+	c #E15431",
"K+	c #E35B39",
"L+	c #E45E3D",
"M+	c #E45F3D",
"N+	c #E45E3B",
"O+	c #E55E39",
"P+	c #E55E37",
"Q+	c #E65D32",
"R+	c #E75B2C",
"S+	c #E85725",
"T+	c #E9541F",
"U+	c #E8440B",
"V+	c #E43D05",
"W+	c #D63302",
"X+	c #AF2601",
"Y+	c #004CF3",
"Z+	c #0060FC",
"`+	c #D8370E",
" @	c #DB431C",
".@	c #DD4C28",
"+@	c #DE522F",
"@@	c #DF5533",
"#@	c #E05734",
"$@	c #E05531",
"%@	c #E05631",
"&@	c #E1562E",
"*@	c #E2552A",
"=@	c #E45325",
"-@	c #E4501F",
";@	c #E54C19",
">@	c #E54813",
",@	c #E5430D",
"'@	c #E43E07",
")@	c #E03802",
"!@	c #D12F00",
"~@	c #AA2300",
"{@	c #E5EDFD",
"]@	c #CD4928",
"^@	c #CC3813",
"/@	c #CC3E1B",
"(@	c #CF4421",
"_@	c #CF4725",
":@	c #CF4726",
"<@	c #CF4624",
"[@	c #D04723",
"}@	c #D14621",
"|@	c #D2451E",
"1@	c #D5451B",
"2@	c #D54216",
"3@	c #D64013",
"4@	c #D53D0E",
"5@	c #D63909",
"6@	c #D53504",
"7@	c #D13001",
"8@	c #C22A00",
"9@	c #AB3C1F",
"0@	c #0051F4",
"a@	c #6699F5",
"b@	c #EED6D0",
"c@	c #B54428",
"d@	c #A62B0D",
"e@	c #AC3011",
"f@	c #AB3112",
"g@	c #A93214",
"h@	c #A93012",
"i@	c #AC3213",
"j@	c #AD3213",
"k@	c #AE3110",
"l@	c #B1300D",
"m@	c #B22E0A",
"n@	c #B42D08",
"o@	c #B12A06",
"p@	c #B12803",
"q@	c #B42701",
"r@	c #AE2400",
"s@	c #AC3C1F",
"t@	c #EAD4CF",
"u@	c #6693F1",
"v@	c #055EF7",
"w@	c #6696F3",
"x@	c #E5ECFC",
"y@	c #054FF2",
"z@	c #0058F7",
"A@	c #0057F6",
"B@	c #004CEF",
"C@	c #0046E0",
"D@	c #0043DC",
"E@	c #0040DC",
"F@	c #003EDA",
"G@	c #0043CF",
"H@	c #1258E0",
"I@	c #B5C6EF",
"J@	c #F4F6FD",
"K@	c #1245CF",
"L@	c #DAD2D0",
"M@	c #643529",
"N@	c #5A1D0D",
"O@	c #5D1E0D",
"P@	c #5F1E0E",
"Q@	c #63200E",
"R@	c #68210F",
"S@	c #6F2310",
"T@	c #732511",
"U@	c #752511",
"V@	c #7C2712",
"W@	c #822912",
"X@	c #852A13",
"Y@	c #892B13",
"Z@	c #8A2B14",
"`@	c #8E2D14",
" #	c #8C2C14",
".#	c #9D4732",
"+#	c #EBD8D3",
"@#	c #69220F",
"##	c #782611",
"$#	c #7E2812",
"%#	c #932E15",
"&#	c #9A3016",
"*#	c #9C3116",
"=#	c #A03217",
"-#	c #A43418",
";#	c #A73518",
">#	c #AA3618",
",#	c #AB3618",
"'#	c #AD3719",
")#	c #B24E35",
"!#	c #591C0D",
"~#	c #792711",
"{#	c #8D2C14",
"]#	c #962E15",
"^#	c #9A2F16",
"/#	c #A13117",
"(#	c #A63317",
"_#	c #AA3418",
":#	c #AF3619",
"<#	c #B23719",
"[#	c #B5391A",
"}#	c #B73A1B",
"|#	c #B93B1B",
"1#	c #BA3B1B",
"2#	c #BB3B1B",
"3#	c #802812",
"4#	c #962F15",
"5#	c #9E3016",
"6#	c #A43216",
"7#	c #AA3317",
"8#	c #AE3518",
"9#	c #B5381A",
"0#	c #B8391A",
"a#	c #BA3A1B",
"b#	c #BC3B1C",
"c#	c #BD3C1C",
"d#	c #BE3D1C",
"e#	c #BF3D1C",
"f#	c #5B1D0D",
"g#	c #9C3016",
"h#	c #A43217",
"i#	c #B8553E",
"j#	c #D59485",
"k#	c #B33619",
"l#	c #B53719",
"m#	c #B8381A",
"n#	c #B9391B",
"o#	c #BA391B",
"p#	c #BC3B1B",
"q#	c #DC9887",
"r#	c #C85D42",
"s#	c #611F0E",
"t#	c #A23217",
"u#	c #D79585",
"v#	c #D89585",
"w#	c #B8371A",
"x#	c #BA391A",
"y#	c #BB3A1B",
"z#	c #DD9887",
"A#	c #C03E1D",
"B#	c #65200E",
"C#	c #902D15",
"D#	c #A73418",
"E#	c #AF3518",
"F#	c #B43619",
"G#	c #D99585",
"H#	c #DA9686",
"I#	c #DB9686",
"J#	c #BC3A1B",
"K#	c #BD3B1B",
"L#	c #BE3C1C",
"M#	c #DE9987",
"N#	c #C03F1D",
"O#	c #6A220F",
"P#	c #952F15",
"Q#	c #AC3518",
"R#	c #B63719",
"S#	c #DC9786",
"T#	c #C2401D",
"U#	c #C2401E",
"V#	c #C13F1D",
"W#	c #702410",
"X#	c #9B3016",
"Y#	c #B03619",
"Z#	c #B9381A",
"`#	c #DF9A88",
" $	c #C4421E",
".$	c #C5431E",
"+$	c #C5431F",
"@$	c #9E3217",
"#$	c #B4381A",
"$$	c #DF9A87",
"%$	c #C6441F",
"&$	c #C74520",
"*$	c #C7451F",
"=$	c #7B2711",
"-$	c #A13217",
";$	c #B7391A",
">$	c #E09B88",
",$	c #E29D89",
"'$	c #C94621",
")$	c #CA4721",
"!$	c #CA4821",
"~$	c #C94620",
"{$	c #C84620",
"]$	c #A53418",
"^$	c #B83A1B",
"/$	c #E19D89",
"($	c #E39E89",
"_$	c #E0947C",
":$	c #CC4A22",
"<$	c #CD4A22",
"[$	c #CB4922",
"}$	c #C3411E",
"|$	c #A93618",
"1$	c #DD9987",
"2$	c #E39F8A",
"3$	c #E59F8B",
"4$	c #E5A08B",
"5$	c #CE4C23",
"6$	c #882B13",
"7$	c #E6A08B",
"8$	c #E6A18B",
"9$	c #CE4B23",
"0$	c #8B2C14",
"a$	c #AC3619",
"b$	c #D76B48",
"c$	c #CF4C23",
"d$	c #C94721",
"e$	c #BB3C1B",
"f$	c #BF3E1D",
"g$	c #CB4821",
"h$	c #CD4B23",
"i$	c #CC4922",
"j$	c #8D2D14",
"k$	c #BC3C1B",
"l$	c #C84520",
"m$	c #AE3719",
"n$	c #C94720",
"o$	c #C95839",
"p$	c #EAD7D3",
"q$	c #B34E35",
"r$	c #C03E1C",
"s$	c #C9583A",
"t$	c #F3DBD4",
"u$	c #1261F3",
"v$	c #1255EF",
". + @ # # $ % % & & & * * * = = - - ; > , ' ' , ) ",
"% & * = = - - ; ; > > > , , , , ' ' ) ) ! ~ ~ ~ { ",
"] ^ / ( _ _ _ _ _ _ _ _ _ _ _ _ _ _ _ _ : < { [ } ",
"- / | 1 2 3 4 5 6 7 8 8 9 9 0 0 a b c d e : [ [ } ",
"- _ f g h i j k l m n o p q r s t u v w x y { [ z ",
"A _ B C D E F G H I J n K L M N O P Q R S _ { { z ",
"A _ T E U V W X Y Z `  ...+.@.7 u #.$.%.&._ *.*.z ",
"A _ =.-.;.W >._ ,.'.).!.~.{.]._ ^./.(._.:._ *.*.z ",
"A _ 4 <.[.X _ _ _ ).}.|.{.1._ _ _ 2.3.4.:._ *.*.z ",
"A _ 5.I X 6.7._ _ _ 8.9.0._ _ _ a.b.c.d.e._ f.*.g.",
"A _ 5.h.i.h.j.k._ _ _ #._ _ _ l.m.n.o.p.q._ f.r.g.",
"s._ t.M L u.,.v.w._ _ _ _ _ x.y.z.A.B.C.D._ f.r.*.",
"E._ F.G.H.I.J.K.4 L._ _ _ M.N.O.P.Q.R.S.T._ U.V.r.",
"W._ X.Y.Z.`. +=..+_ _ _ _ _ ++@+#+$+%+&+*+_ =+-+r.",
";+_ >+7 ,+=.'+)+_ _ _ !+_ _ ~+{+]+^+/+(+_+_ :+<+-+",
"[+_ }+|+1+2+3+_ _ _ 4+5+6+_ _ _ 7+8+9+0+a+_ :+:+=+",
"b+_ c+d+e+f+_ _ _ g+h+i+j+k+_ _ _ l+m+n+o+_ p+q+:+",
"r+_ s+t+#.e+u+_ v+w+x+y+z+A+B+_ C+D+E+F+G+_ p+p+:+",
"H+_ I+}+J+K+L+M+N+O+P+Q+R+S+T+7+l+U+V+W+X+_ Y+p+q+",
"Z+_ `+ @.@+@@@#@$@%@&@*@=@-@;@>@,@'@)@!@~@_ Y+Y+p+",
"Z+{@]@^@/@(@_@:@<@[@}@|@1@2@3@4@5@6@7@8@9@_ 0@Y+p+",
"Z+a@b@c@d@e@f@g@h@i@j@k@l@m@n@o@p@q@r@s@t@u@0@Y+p+",
"H+v@w@_ _ _ _ _ _ _ _ _ _ _ _ _ _ _ _ x@u@y@Y+p+q+",
"z@z@A@b+0@b+0@0@b+b+b+b+;+B@;+b+0@Y+Y+p+p+p+p+p+p+",
"C@C@D@E@E@U.U.U.F@E@U.E@E@E@F@E@F@V.V.f.V.r.f.r.-+",
"G@G@G@G@G@G@G@G@G@G@G@G@G@G@G@G@G@G@G@G@G@G@G@G@-+",
". + @ # # $ % % & & & * * * = = - - ; > , ' ' , ) ",
"% & * = = - - ; ; > > > , , , , ' ' ) ) ! ~ ~ ~ { ",
"] H@I@J@_ _ _ _ _ _ _ _ _ _ _ _ _ _ _ J@I@K@{ [ } ",
"- I@L@M@N@O@P@Q@R@S@T@U@V@W@X@Y@Z@`@ #.#+#I@[ [ } ",
"- J@M@@###$#W@Z@`@%#&#*#=#-#;#>#,#'#&.'#)#J@{ [ z ",
"A _ !#~#{#]#^#/#(#_#:#<#[#}#|#1#1#2#2#2#1#_ { { z ",
"A _ !#3#4#5#6#7#8#<#9#0#a#b#c#d#d#d#e#e#e#_ *.*.z ",
"A _ f#X@g#h#i#j#k#l#m#n#o#p#c#q#r#d#e#e#e#_ *.*.z ",
"A _ s# #t#7#j#u#v#w#x#y#p#c#z#z#z#d#A#e#e#_ *.*.z ",
"A _ B#C#D#E#F#G#H#I#J#K#L#z#M#M#N#A#A#A#e#_ f.*.g.",
"A _ O#P#Q#<#R#m#I#S#S#L#z#M#M#T#U#U#T#V#A#_ f.r.g.",
"s._ W#X#Y#9#Z#o#J#S#z#M#M#`# $.$+$ $ $U#A#_ f.r.*.",
"E._ U@@$#$0#o#y#K#L#M#$$`#+$%$&$&$*$%$ $V#_ U.V.r.",
"W._ =$-$;$a#a#p#L#z#$$`#>$,$'$)$!$~${$+$T#_ =+-+r.",
";+_ 3#]$^$b#p#c#z#M#`#+$/$($_$:$<$[$)$*$}$_ :+<+-+",
"[+_ X@|$1#c#c#z#1$$$ $%$'$2$3$4$5$<$[${$}$_ :+:+=+",
"b+_ 6$>#1#d#z#z#M#T#+$&$)$:$4$7$8$9$:$~$ $_ p+q+:+",
"r+_ 0$a$2#d#r#1$N#U#+$&$)$:$9$8$b$c$<$d$ $_ p+p+:+",
"H+_ 0$'#e$d#d#f$A#T# $%$~$g$<$h$c$5$i$~$ $_ Y+p+q+",
"Z+_ j$'#k$e#e#A#A#T# $+$l$)$[$i$<$i$!$&$}$_ Y+Y+p+",
"Z+J@.#m$k$e#e#e#e#A#T# $+$&$l$n$)$d$&$+$o$J@0@Y+p+",
"Z+I@p$q$1#e#e#e#e#r$V#V#T#}$}$ $ $ $}$s$t$I@0@Y+p+",
"H+u$I@J@_ _ _ _ _ _ _ _ _ _ _ _ _ _ _ J@I@v$Y+p+q+",
"z@z@A@b+0@b+0@0@b+b+b+b+;+B@;+b+0@Y+Y+p+p+p+p+p+p+",
"C@C@D@E@E@U.U.U.F@E@U.E@E@E@F@E@F@V.V.f.V.r.f.r.-+",
"G@G@G@G@G@G@G@G@G@G@G@G@G@G@G@G@G@G@G@G@G@G@G@G@-+"};
