/* XPM */
static char * frameAR_xpm[] = {
"4 32 6 1",
" 	c None",
".	c #0048F1",
"+	c #003DDC",
"@	c #001EA0",
"#	c #00138C",
"$	c #003DDD",
".+@#",
".+@#",
".$@#",
".$@#",
".$@#",
".$@#",
".$@#",
".$@#",
".$@#",
".$@#",
".$@#",
".$@#",
".$@#",
".$@#",
".$@#",
".+@#",
".+@#",
".+@#",
".+@#",
".+@#",
".+@#",
".+@#",
".+@#",
".+@#",
".+@#",
".+@#",
".+@#",
".+@#",
".+@#",
".+@#",
".+@#",
".+@#"};
