/* XPM */
static char * frameAB_xpm[] = {
"32 4 8 1",
" 	c None",
".	c #0048F1",
"+	c #003DDC",
"@	c #003EDC",
"#	c #001EA1",
"$	c #001EA0",
"%	c #001DA0",
"&	c #00138C",
"................................",
"+++++++++++++++++++++++++++++++@",
"##########$$$$$$$$$$$$$$$$$$$$$%",
"&&&&&&&&&&&&&&&&&&&&&&&&&&&&&&&&"};
