/* XPM */
static char * frameITR_xpm[] = {
"5 30 32 1",
" 	c None",
".	c #5E7DD8",
"+	c #485ECA",
"@	c #7B97E0",
"#	c #7084D7",
"$	c #5063CC",
"%	c #7B99E1",
"&	c #768EDB",
"*	c #6B78D0",
"=	c #4756C8",
"-	c #788EDB",
";	c #7689D9",
">	c #707AD2",
",	c #5B68CD",
"'	c #7584D8",
")	c #767FD8",
"!	c #727AD2",
"~	c #6F71CD",
"{	c #5B5EC5",
"]	c #747CD5",
"^	c #7276D1",
"/	c #6E6DC5",
"(	c #7783DA",
"_	c #7784DB",
":	c #7786DC",
"<	c #7987DE",
"[	c #7B8EE1",
"}	c #7A8BDE",
"|	c #7D94E4",
"1	c #7C91E1",
"2	c #7789DB",
"3	c #4F53BC",
"     ",
".+   ",
"@#$  ",
"%&*= ",
"-;>, ",
"')!~{",
"]!^~{",
"]!~/{",
"]^~/{",
"]!~/{",
")]^/{",
")]^/{",
")]^/{",
"(]^/{",
"()^/{",
"()^/{",
"_)]~{",
":(]~{",
"<:)~{",
"[<)^{",
"[}(^{",
"[[_^{",
"|[:^{",
"|1<!{",
"|1<^{",
"|12^{",
"|12^{",
"[[2^{",
"::'~{",
"::'~3"};
