/* XPM */
static char * frameIBR_xpm[] = {
"4 8 9 1",
" 	c None",
".	c #758CDC",
"+	c #758CDD",
"@	c #7480DC",
"#	c #5B68CD",
"$	c #7589DE",
"%	c #7587DD",
"&	c #6D74CD",
"*	c #4F53BC",
".+@#",
".+@#",
".+@#",
".+@#",
"+$@#",
"%$@#",
"&&&#",
"***#"};
