/* XPM */
static char * frameABR_xpm[] = {
"4 8 11 1",
" 	c None",
".	c #0048F1",
"+	c #003DDC",
"@	c #001DA0",
"#	c #00138C",
"$	c #002DBE",
"%	c #0037D0",
"&	c #002CBC",
"*	c #001EA3",
"=	c #001EA1",
"-	c #001B9B",
".+@#",
".+@#",
".+@#",
".+@#",
"+$@#",
"%&*#",
"*=-#",
"####"};
