/* XPM */
static char * menuButtonI_xpm[] = {
"26 52 33 1",
" 	c None",
".	c #7EA2E4",
"+	c #7B9DE1",
"@	c #7A99E0",
"#	c #7996DE",
"$	c #7A96DF",
"%	c #7A96E0",
"&	c #7B97E0",
"*	c #7B99E1",
"=	c #7D9BE3",
"-	c #7F9FE6",
";	c #7FA2E6",
">	c #80A5E7",
",	c #81A7E8",
"'	c #82A9E9",
")	c #7E9DE5",
"!	c #7A93DF",
"~	c #9AC0F4",
"{	c #96BBF3",
"]	c #95B7F2",
"^	c #94B4F1",
"/	c #95B4F1",
"(	c #95B4F2",
"_	c #96B5F2",
":	c #96B7F3",
"<	c #98B9F4",
"[	c #9BBDF6",
"}	c #9BC0F6",
"|	c #9CC3F6",
"1	c #9DC5F7",
"2	c #9EC7F7",
"3	c #9ABBF5",
"4	c #95B1F1",
"..........................",
"++++++++++++++++++++++++++",
"@@@@@@@@@@@@@@@@@@@@@@@@@@",
"##########################",
"##########################",
"##########################",
"$$$$$$$$$$$$$$$$$$$$$$$$$$",
"$$$$$$$$$$$$$$$$$$$$$$$$$$",
"$$$$$$$$$$$$$$$$$$$$$$$$$$",
"%%%%%%%%%%%%%%%%%%%%%%%%%%",
"&&&&&&&&&&&&&&&&&&&&&&&&&&",
"**************************",
"**************************",
"==========================",
"==========================",
"--------------------------",
";;;;;;;;;;;;;;;;;;;;;;;;;;",
">>>>>>>>>>>>>>>>>>>>>>>>>>",
",,,,,,,,,,,,,,,,,,,,,,,,,,",
"''''''''''''''''''''''''''",
"''''''''''''''''''''''''''",
",,,,,,,,,,,,,,,,,,,,,,,,,,",
">>>>>>>>>>>>>>>>>>>>>>>>>>",
"))))))))))))))))))))))))))",
"!!!!!!!!!!!!!!!!!!!!!!!!!!",
"!!!!!!!!!!!!!!!!!!!!!!!!!!",
"~~~~~~~~~~~~~~~~~~~~~~~~~~",
"{{{{{{{{{{{{{{{{{{{{{{{{{{",
"]]]]]]]]]]]]]]]]]]]]]]]]]]",
"^^^^^^^^^^^^^^^^^^^^^^^^^^",
"^^^^^^^^^^^^^^^^^^^^^^^^^^",
"^^^^^^^^^^^^^^^^^^^^^^^^^^",
"//////////////////////////",
"//////////////////////////",
"//////////////////////////",
"((((((((((((((((((((((((((",
"__________________________",
"::::::::::::::::::::::::::",
"::::::::::::::::::::::::::",
"<<<<<<<<<<<<<<<<<<<<<<<<<<",
"<<<<<<<<<<<<<<<<<<<<<<<<<<",
"[[[[[[[[[[[[[[[[[[[[[[[[[[",
"}}}}}}}}}}}}}}}}}}}}}}}}}}",
"||||||||||||||||||||||||||",
"11111111111111111111111111",
"22222222222222222222222222",
"22222222222222222222222222",
"11111111111111111111111111",
"||||||||||||||||||||||||||",
"33333333333333333333333333",
"44444444444444444444444444",
"44444444444444444444444444"};
