/* XPM */
static char * taskbuttonactive_xpm[] = {
"200 28 70 1",
" 	c None",
".	c #307BE5",
"+	c #1666EC",
"@	c #175DCF",
"#	c #2266D5",
"$	c #1C62D2",
"%	c #1E64D3",
"&	c #236DE7",
"*	c #1351C2",
"=	c #154FB5",
"-	c #1B54B8",
";	c #1B54B9",
">	c #1853BA",
",	c #1954B9",
"'	c #0E49BD",
")	c #11388E",
"!	c #143F96",
"~	c #144099",
"{	c #14419A",
"]	c #144199",
"^	c #144098",
"/	c #08296F",
"(	c #143F95",
"_	c #17479F",
":	c #1749AC",
"<	c #184BA9",
"[	c #184BAA",
"}	c #144096",
"|	c #164CAC",
"1	c #164DBC",
"2	c #1951B9",
"3	c #1650BC",
"4	c #1951BC",
"5	c #174CBA",
"6	c #1A50B8",
"7	c #1951BA",
"8	c #082970",
"9	c #174DB9",
"0	c #1A51B6",
"a	c #1A52B8",
"b	c #174CB9",
"c	c #1A51B8",
"d	c #174DB8",
"e	c #174EB8",
"f	c #143E95",
"g	c #1B50B9",
"h	c #082A70",
"i	c #1B51B9",
"j	c #092B71",
"k	c #184EB8",
"l	c #1B51B8",
"m	c #092B72",
"n	c #1A51B7",
"o	c #1D53B8",
"p	c #0C43BE",
"q	c #133E91",
"r	c #1B4FB4",
"s	c #1B54BA",
"t	c #1E56B9",
"u	c #1E55B9",
"v	c #2055B7",
"w	c #1F55B8",
"x	c #1B56DB",
"y	c #1046BA",
"z	c #2156B7",
"A	c #2056B7",
"B	c #2055CD",
"C	c #174ECA",
"D	c #1446B2",
"E	c #1446AE",
".+@#####$$%%%%%%%%%%%%%%%%%%%%%%%%%%%%%%%%%%%%%%%%%%%%%%%%%%%%%%%%%%%%%%%%%%%%%%%%%%%%%%%%%%%%%%%%%%%%%%%%%%%%%%%%%%%%%%%%%%%%%%%%%%%%%%%%%%%%%%%%%%%%%%%%%%%%%%%%%%%%%%%%%%%%%%%%%%%%%%%%%%%%%%%%%%%%%%",
"&*=-;;;->>,,,,,,,,,,,,,,,,,,,,,,,,,,,,,,,,,,,,,,,,,,,,,,,,,,,,,,,,,,,,,,,,,,,,,,,,,,,,,,,,,,,,,,,,,,,,,,,,,,,,,,,,,,,,,,,,,,,,,,,,,,,,,,,,,,,,,,,,,,,,,,,,,,,,,,,,,,,,,,,,,,,,,,,,,,,,,,,,,,,,,,,,,,,,,,",
"')!~{{{~]]^^^^^^^^^^^^^^^^^^^^^^^^^^^^^^^^^^^^^^^^^^^^^^^^^^^^^^^^^^^^^^^^^^^^^^^^^^^^^^^^^^^^^^^^^^^^^^^^^^^^^^^^^^^^^^^^^^^^^^^^^^^^^^^^^^^^^^^^^^^^^^^^^^^^^^^^^^^^^^^^^^^^^^^^^^^^^^^^^^^^^^^^^^^^^^",
"/(_:::::<<[[[[[[[[[[[[[[[[[[[[[[[[[[[[[[[[[[[[[[[[[[[[[[[[[[[[[[[[[[[[[[[[[[[[[[[[[[[[[[[[[[[[[[[[[[[[[[[[[[[[[[[[[[[[[[[[[[[[[[[[[[[[[[[[[[[[[[[[[[[[[[[[[[[[[[[[[[[[[[[[[[[[[[[[[[[[[[[[[[[[[[[[[[[[[[",
"/}|11111223333333333333333333333333333333333333333333333333333333333333333333333333333333333333333333333333333333333333333333333333333333333333333333333333333333333333333333333333333333333333333333333",
"/}111111223333333333333333333333333333333333333333333333333333333333333333333333333333333333333333333333333333333333333333333333333333333333333333333333333333333333333333333333333333333333333333333333",
"/}111111224444444444444444444444444444444444444444444444444444444444444444444444444444444444444444444444444444444444444444444444444444444444444444444444444444444444444444444444444444444444444444444444",
"/}555555667777777777777777777777777777777777777777777777777777777777777777777777777777777777777777777777777777777777777777777777777777777777777777777777777777777777777777777777777777777777777777777777",
"/}555555662222222222222222222222222222222222222222222222222222222222222222222222222222222222222222222222222222222222222222222222222222222222222222222222222222222222222222222222222222222222222222222222",
"8}999999660aaa0aaa0aaa0aaa0aaa0aaaa0aaaa0aaaaaa0aaa0aaa0aaa0aaa0aaaa0aaaa0aaaa0aaa0aaa0aaa0aaa0aaaa0aaaa0aaaaaaa0aaa0aaa0aaa0aaa0aaaa0aaaa0aaaaa0aaa0aaa0aaa0aaa0aaaa0aaaa0aaa0aaa0aaa0aaa0aaa0aaaa0aaaa",
"8}999999660aaa0aaa0aaa0aaa0aaa0aaaa0aaaa0aaaaaa0aaa0aaa0aaa0aaa0aaaa0aaaa0aaaa0aaa0aaa0aaa0aaa0aaaa0aaaa0aaaaaaa0aaa0aaa0aaa0aaa0aaaa0aaaa0aaaaa0aaa0aaa0aaa0aaa0aaaa0aaaa0aaa0aaa0aaa0aaa0aaa0aaaa0aaaa",
"8}999bbb6622cc22cc22cc22cc22cc22ccc22ccc22ccccc22cc22cc22cc22cc22ccc22ccc22ccc22cc22cc22cc22cc22ccc22ccc22cccccc22cc22cc22cc22cc22ccc22ccc22cccc22cc22cc22cc22cc22ccc22ccc22cc22cc22cc22cc22cc22ccc22ccc",
"8}bbbbbb662666266626662666266626666266662666666266626662666266626666266662666626662666266626662666626666266666662666266626662666266662666626666626662666266626662666626666266626662666266626662666626666",
"8(dddeee662666266626662666266626666266662666666266626662666266626666266662666626662666266626662666626666266662662666266626662666266662666626666626662666266626662666626666266626662666266626662666626666",
"8feeeeee66g666g666g666g666g666g6666g6666g666666g666g666g666g666g6666g6666g6666g666g666g666g666g6666g6666g6666266g666g666g666g666g6666g6666g66666g666g666g666g666g6666g6666g666g666g666g666g666g6666g6666",
"8feeeeee66g666g666g666g666g666g6666g6666g666666g666g666g666g666g6666g6666g6666g666g666g666g666g6666g6666g6666266g666g666g666g666g6666g6666g66666g666g666g666g666g6666g6666g666g666g666g666g666g6666g6666",
"hfeeeeee66i666i666i666i666i666i6666i6666i666666i666i666i666i666i6666i6666i6666i666i666i666i666i6666i6666i6666266i666i666i666i666i6666i6666i66666i666i666i666i666i6666i6666i666i666i666i666i666i6666i6666",
"jfeeekkk66l666l666l666l666l666l6666l6666l666666l666l666l666l666l6666l6666l6666l666l666l666l666l6666l6666l6666266l666l666l666l666l6666l6666l66666l666l666l666l666l6666l6666l666l666l666l666l666l6666l6666",
"jfkkkkkk666666666666666666666666666666666666666666666666666666666666666666666666666666666666666666666666666662666666666666666666666666666666666666666666666666666666666666666666666666666666666666666666",
"jfkkkkkk666666666666666666666666666666666666666666666666666666666666666666666666666666666666666666666666666662666666666666666666666666666666666666666666666666666666666666666666666666666666666666666666",
"jfkkkkk6666666666666666666666666666666666666666666666666666666666666666666666666666666666666666666666666666666666666666666666666666666666666666666666666666666666666666666666666666666666666666666666666",
"mfkkk666666666666666666666666666666666666666666666666666666666666666666666666666666666666666666666666666666666666666666666666666666666666666666666666666666666666666666666666666666666666666666666666666",
"mf666666666666666666666666666666666666666666666666666666666666666666666666666666666666666666666666666666666666666666666666666666666666666666666666666666666666666666666666666666666666666666666666666666",
"jf666666666666666666666666666666666666666666666666666666666666666666666666666666666666666666666666666666666666666666666666666666666666666666666666666666666666666666666666666666666666666666666666666666",
"/f666aanoooooooooooooooooooooooooooooooooooooooooooooooooooooooooooooooooooooooooooooooooooooooooooooooooooooooooooooooooooooooooooooooooooooooooooooooooooooooooooooooooooooooooooooooooooooooooooooooo",
"pqrssttuvvwwwwwwwwwwwwwwwwwwwwwwwwwwwwwwwwwwwwwwwwwwwwwwwwwwwwwwwwwwwwwwwwwwwwwwwwwwwwwwwwwwwwwwwwwwwwwwwwwwwwwwwwwwwwwwwwwwwwwwwwwwwwwwwwwwwwwwwwwwwwwwwwwwwwwwwwwwwwwwwwwwwwwwwwwwwwwwwwwwwwwwwwwwwwww",
"xyzzAAAAAAAAAAAAAAAAAAAAAAAAAAAAAAAAAAAAAAAAAAAAAAAAAAAAAAAAAAAAAAAAAAAAAAAAAAAAAAAAAAAAAAAAAAAAAAAAAAAAAAAAAAAAAAAAAAAAAAAAAAAAAAAAAAAAAAAAAAAAAAAAAAAAAAAAAAAAAAAAAAAAAAAAAAAAAAAAAAAAAAAAAAAAAAAAAAAA",
"BCDDEEEEEEEEEEEEEEEEEEEEEEEEEEEEEEEEEEEEEEEEEEEEEEEEEEEEEEEEEEEEEEEEEEEEEEEEEEEEEEEEEEEEEEEEEEEEEEEEEEEEEEEEEEEEEEEEEEEEEEEEEEEEEEEEEEEEEEEEEEEEEEEEEEEEEEEEEEEEEEEEEEEEEEEEEEEEEEEEEEEEEEEEEEEEEEEEEEEE"};
