/* XPM */
static char * windows_xpm[] = {
"22 26 44 1",
" 	c None",
".	c #307BE5",
"+	c #286ADD",
"@	c #235AD4",
"#	c #2257D5",
"$	c #48AEEE",
"%	c #1D4DC2",
"&	c #3368D5",
"*	c #4378D5",
"=	c #9BD4F4",
"-	c #74BAE6",
";	c #2E85D5",
">	c #1B437F",
",	c #C7E2FC",
"'	c #FFFEFC",
")	c #173262",
"!	c #2247B4",
"~	c #FEFCF1",
"{	c #3778C8",
"]	c #35ADEC",
"^	c #F6FAFF",
"/	c #E5F2FF",
"(	c #A8220D",
"_	c #1941A5",
":	c #235CDB",
"<	c #E0E5DB",
"[	c #ED6323",
"}	c #FEF7E5",
"|	c #919C71",
"1	c #0167CC",
"2	c #1D4DA2",
"3	c #FCF3C6",
"4	c #080702",
"5	c #CAD0BF",
"6	c #1654B6",
"7	c #0150B5",
"8	c #2253B6",
"9	c #2665DD",
"0	c #0449AD",
"a	c #114CA7",
"b	c #0D3A9D",
"c	c #275DCF",
"d	c #2663E0",
"e	c #1E50C4",
"......................",
"++++++++++++++++++++++",
"@@@@@@@@@@@@@@@@@@@@@@",
"@@@@@@@@@@@@@@@@@@@@@@",
"###########$$$$$%#####",
"####%&*$$$$==$-;>%####",
"###;$$;=,'''''$;)!####",
"###;,;~~~,$${~~;)!####",
"@@@;;~~]$$^/{~;;(_#@@@",
":::;<~~]'^//;;,[[(_:::",
":::;}}}]'//;,,=;()>:::",
":::;}}}]//|,=;;1))2:::",
":::;<33]/44;;;31)_@:::",
":::;533],,,,{331)!::::",
":::;533],,{{{3=1)!::::",
":::6533{{{333=77)!::::",
":::6653333{{{{))>8::::",
"99960a{{{{)))))>!@9999",
"9996b))))))22!8c:99999",
"999c2>22!88@9999999999",
"9999999999999999999999",
"dddddddddddddddddddddd",
"dddddddddddddddddddddd",
"9999999999999999999999",
"::::::::::::::::::::::",
"eeeeeeeeeeeeeeeeeeeeee"};
